<?xml version="1.0" standalone="no"?>
<!DOCTYPE svg PUBLIC "-//W3C//DTD SVG 1.1//EN" "http://www.w3.org/Graphics/SVG/1.1/DTD/svg11.dtd" >
<svg xmlns="http://www.w3.org/2000/svg">
<metadata></metadata>
<defs>
<font id="botonregular" horiz-adv-x="598" >
<font-face units-per-em="2048" ascent="1638" descent="-410" />
<missing-glyph horiz-adv-x="500" />
<glyph horiz-adv-x="2048" />
<glyph horiz-adv-x="2048" />
<glyph horiz-adv-x="682" />
<glyph d="M68 1491h102q4 -23 10 -49.5t33 -48.5q37 -33 82 -33q49 0 86 33q29 25 36 53.5t11 44.5h100q-2 -31 -11 -72t-52 -86q-29 -29 -72 -49t-98 -20q-29 0 -68 10t-73.5 35.5t-60 69.5t-25.5 112z" />
<glyph d="M207 1296v168h184v-168h-184z" />
<glyph d="M92 1393q0 39 14.5 74.5t41 63.5t65.5 44t86 16q92 0 149.5 -59t57.5 -139q0 -82 -57.5 -140.5t-149.5 -58.5q-96 0 -151.5 58.5t-55.5 140.5zM178 1393q0 -49 35 -86t86 -37t87 36.5t36 86.5q0 51 -37 87t-86 36q-51 0 -86 -36t-35 -87z" />
<glyph unicode="&#xa;" d="M-6 1243l84 273h217l-168 -273h-133zM305 1243l84 273h217l-166 -273h-135z" />
<glyph d="M145 -207q0 59 38 112.5t77 94.5h96q-37 -39 -58.5 -66.5t-32.5 -48t-14 -36t-3 -29.5q0 -39 27.5 -60.5t66.5 -21.5q23 0 42 5t40 15l29 -90q-27 -10 -60 -20t-74 -10q-47 0 -80.5 14t-54 36.5t-30 50.5t-9.5 54z" />
<glyph d="M90 1520h117l90 -166l92 166h119l-102 -279h-218z" />
<glyph unicode="&#xd;" />
<glyph horiz-adv-x="256" d="M-219 0l559 1446h117l-555 -1446h-121z" />
<glyph horiz-adv-x="1110" d="M49 0v129h152v809h-152v129h152v68q2 82 10 148.5t59 119.5q43 43 99.5 57.5t122.5 14.5q35 0 62.5 -4.5t61.5 -8.5v-131q-49 8 -64 10t-30 2q-53 0 -78.5 -17t-33.5 -26q-29 -31 -33 -65.5t-4 -97.5v-70h553v-938h151v-129h-463v129h142v809h-383v-809h135v-129h-459z M727 1280v166h199v-166h-199z" />
<glyph horiz-adv-x="1110" d="M49 0v129h152v809h-152v129h152v68q2 86 10 150.5t59 117.5q45 45 101.5 58.5t120.5 13.5q29 0 51 -2.5t45 -6.5v-129q-12 2 -27.5 4t-40.5 2q-31 0 -59.5 -10t-50.5 -33q-29 -31 -33 -69.5t-4 -93.5v-70h202v-129h-202v-809h137v-129h-461zM616 0v129h136v1188h-97v129 h269v-1317h149v-129h-457z" />
<glyph horiz-adv-x="980" d="M-2 492v151l195 137v537h-152v129h475v-129h-154v-416l252 180v-149l-252 -180v-623h431v360h153v-489h-905v129h152v502z" />
<glyph horiz-adv-x="555" d="M0 522v150l197 139v506h-150v129h322v-510l182 131v-147l-182 -132v-659h149v-129h-471v129h150v535z" />
<glyph horiz-adv-x="1110" d="M100 0v129l723 1188h-530v-326h-156v455h879v-129l-723 -1188h567v365h156v-494h-916zM350 1870h117l90 -166l92 166h119l-102 -279h-217z" />
<glyph horiz-adv-x="894" d="M33 0v129l590 807h-418v-221h-154v352h787v-129l-596 -809h444v238h152v-367h-805zM246 1520h117l90 -166l92 166h119l-102 -279h-218z" />
<glyph unicode=" " />
<glyph unicode="!" d="M236 0v215h210v-215h-210zM236 1448h210l-16 -1077h-174z" />
<glyph unicode="&#x22;" horiz-adv-x="811" d="M125 1426.5v15.5q0 49 29.5 70.5t64.5 21.5q29 0 49.5 -14.5t28.5 -30.5t8 -28.5v-26.5l-74 -523h-38l-66 496q-2 12 -2 19.5zM508 1426.5v15.5q0 49 30.5 70.5t63.5 21.5q31 0 50.5 -14.5t27.5 -30.5t8 -28.5v-26.5l-72 -523h-41l-65 496q-2 12 -2 19.5z" />
<glyph unicode="#" horiz-adv-x="1366" d="M84 530v111h360l27 199h-342v116h356l66 494h129l-72 -494h207l66 494h120l-67 -494h344v-116h-358l-27 -199h344v-111h-356l-76 -530h-125l78 530h-207l-78 -530h-119l74 530h-344zM565 641h207l27 199h-205z" />
<glyph unicode="$" horiz-adv-x="1110" d="M96 0v489h152q2 -27 11 -79t36 -109t75 -107.5t128 -72.5v561q-59 23 -112.5 46.5t-98.5 51.5q-23 14 -51.5 40t-54 65t-44 90t-18.5 117q0 86 33.5 164.5t105.5 136.5q35 29 69.5 45t65.5 24t57.5 11.5t45.5 5.5q0 33 -1 58.5t-1 49t-1 45t-1 47.5h149q0 -43 -1 -69.5 t-1 -49t-1 -45t-1 -59.5q53 -14 107.5 -48t105.5 -116l4 156h139v-461h-151q-4 35 -13.5 83t-32 97.5t-61.5 93.5t-104 68v-516q61 -23 129.5 -53.5t127 -79.5t97.5 -123t39 -180q0 -49 -10 -100.5t-35 -100.5t-67 -91t-103 -71q-53 -25 -95 -31t-81 -10v-59.5t1 -46l2 -43 t3 -51.5h-152q2 33 3.5 55t2.5 45t1 49.5v63.5q-20 6 -49 16t-62 29.5t-68.5 50.5t-68.5 78l-8 -160h-142zM276 1108q0 -57 17.5 -96t48.5 -66.5t71 -47t85 -40.5v488q-33 -4 -76 -17.5t-82 -54.5q-16 -16 -40 -57t-24 -109zM627 104q33 6 69.5 16.5t75.5 45.5 q41 35 63.5 85t22.5 114q0 68 -24.5 113.5t-60.5 76.5t-76 49.5t-70 30.5v-531z" />
<glyph unicode="%" horiz-adv-x="1792" d="M45 995q0 70 11.5 146t37.5 135q6 14 24.5 46t52.5 63.5t86 56t128 24.5q16 0 48 -4t69 -18t75.5 -44t69.5 -83t51.5 -132t20.5 -192q0 -78 -12.5 -154.5t-49.5 -146.5q-31 -57 -68.5 -90t-76.5 -50t-75 -22.5t-58 -5.5q-51 0 -91 13.5t-71 33t-52.5 43t-33.5 43.5 q-25 37 -42 80t-26.5 88t-13.5 89t-4 81zM162 1008q0 -33 4 -90.5t20 -110.5q25 -94 79 -142.5t120 -48.5q55 0 100 33q16 12 37 35t38.5 62.5t29.5 98t12 142.5q0 178 -57.5 282.5t-163.5 104.5q-66 0 -109 -35.5t-67.5 -89t-33.5 -119t-9 -122.5zM549 0l559 1446h117 l-557 -1446h-119zM1067 453q0 72 11.5 147.5t37.5 134.5q6 14 24.5 46t52.5 64t87 56.5t129 24.5q16 0 47 -4t68 -18.5t75.5 -44.5t69.5 -83t51.5 -133t20.5 -192q0 -78 -12.5 -155t-47.5 -146q-31 -55 -68.5 -88t-75.5 -51.5t-74 -23.5t-60 -5q-49 0 -89 12t-71 31.5 t-53.5 43t-36.5 46.5q-25 37 -42 80t-26.5 88t-13.5 89t-4 81zM1184 465q0 -33 4 -90.5t20 -112.5q25 -92 79 -140t120 -48q27 0 52.5 8t47.5 24q16 10 37 33t38 63t29.5 99t12.5 143q0 180 -57.5 285t-163.5 105q-66 0 -109 -36t-67.5 -90.5t-33.5 -120t-9 -122.5z" />
<glyph unicode="&#x26;" horiz-adv-x="1409" d="M90 442q0 82 21.5 145.5t57.5 110.5t82 82t93 60q-37 55 -74 126.5t-37 166.5q0 76 29 139t82 109t128 71t169 25q47 0 82 -4.5t63 -14.5q39 -12 79 -34.5t72 -56.5t51.5 -79t19.5 -102q0 -53 -16.5 -95t-41.5 -73q-47 -66 -115.5 -101.5t-148.5 -70.5l-111 -49 q39 -41 68 -71t63.5 -64.5t82 -80.5t120.5 -120l92 -86q20 47 31.5 113.5t16.5 152.5h163q-4 -82 -11 -138.5t-18.5 -98.5t-25.5 -74.5t-33 -69.5l281 -260h-244l-137 133q-20 -18 -55 -45t-85 -51.5t-120 -42t-160 -17.5q-117 0 -211 36t-161.5 99.5t-104.5 148.5t-37 181z M260 455q0 -74 26.5 -136.5t75 -109.5t114 -73.5t145.5 -26.5q68 0 116.5 13t83.5 31.5t58.5 40t40.5 37.5l-271 269l-219 229q-16 -8 -44 -26.5t-56.5 -50t-49 -80t-20.5 -117.5zM399 1143q0 -68 28.5 -124.5t61.5 -107.5q41 16 80 34t80 36q25 12 58.5 28.5t62.5 41 t49.5 58.5t20.5 79q0 31 -12.5 58.5t-28.5 45.5q-20 20 -43 31.5t-44.5 17t-40 6.5t-30.5 1q-43 0 -86 -10.5t-78 -34t-56.5 -63.5t-21.5 -97z" />
<glyph unicode="'" horiz-adv-x="425" d="M123 1426.5v15.5q0 49 30.5 70.5t63.5 21.5q31 0 50.5 -14.5t27.5 -30.5t8 -28.5v-26.5l-72 -523h-41l-65 496q-2 12 -2 19.5z" />
<glyph unicode="(" d="M168 543q0 164 16.5 306t36.5 247q14 78 28.5 135t29 101t29 79t28.5 70h149q-10 -37 -19 -70t-18.5 -69.5t-18.5 -80.5t-17 -104q-43 -283 -43 -567q0 -154 11 -307.5t34 -307.5q8 -68 16 -116.5t16.5 -89.5t18.5 -79t22 -85h-151q-23 61 -51.5 147t-55 202t-44 262 t-17.5 327z" />
<glyph unicode=")" d="M109 -395q10 37 20 73.5t21 73.5q12 45 25 121t24.5 174t19.5 215t8 244q0 176 -15 350t-42 348q-8 53 -15.5 91t-14.5 68t-15 57.5t-16 58.5h151q27 -72 52.5 -145.5t47.5 -184.5q33 -143 50.5 -304t17.5 -304q0 -154 -18.5 -320t-53.5 -313q-12 -55 -23 -98t-23.5 -79 t-25 -66t-24.5 -60h-151z" />
<glyph unicode="*" horiz-adv-x="811" d="M51 954l228 133l-228 125l62 119l221 -129v244h135v-248l225 135l68 -119l-223 -129l223 -120l-68 -123l-225 133v-254h-135v250l-211 -129z" />
<glyph unicode="+" horiz-adv-x="1366" d="M86 535v122h537v533h122v-533h535v-122h-535v-535h-122v535h-537z" />
<glyph unicode="," horiz-adv-x="512" d="M63 -219l113 422h256l-227 -422h-142z" />
<glyph unicode="-" horiz-adv-x="894" d="M70 502v162h753v-162h-753z" />
<glyph unicode="." horiz-adv-x="512" d="M145 0v217h220v-217h-220z" />
<glyph unicode="/" horiz-adv-x="768" d="M-12 -213l626 1878h160l-622 -1878h-164z" />
<glyph unicode="0" horiz-adv-x="1193" d="M59 727q0 127 18.5 237.5t55.5 196.5q27 59 59.5 105.5t67.5 79t67.5 54t57.5 34.5q47 23 104.5 34t106.5 11q16 0 32.5 -1t33.5 -3q66 -8 123 -29t118 -74q70 -57 114 -132t69.5 -159t36 -174t10.5 -180q0 -276 -76 -444q-37 -86 -95.5 -153t-123.5 -101 q-53 -29 -122 -45.5t-130 -16.5q-123 0 -212 49.5t-147 114.5q-59 70 -93 150.5t-50 162.5t-20.5 156t-4.5 127zM231 737q0 -66 6.5 -147.5t26.5 -161.5q43 -168 132 -247t200 -79q94 0 172 56q61 45 99 115.5t58.5 150.5t26.5 157.5t6 135.5q0 66 -5 132t-19 132 q-12 61 -38 124.5t-65.5 116t-97 86t-135.5 33.5q-70 0 -114 -18t-72 -43q-76 -59 -128.5 -195.5t-52.5 -347.5z" />
<glyph unicode="1" horiz-adv-x="1193" d="M352 1227v139l244 80h115v-1317h153v-129h-475v129h150v1163z" />
<glyph unicode="2" horiz-adv-x="1193" d="M102 0v129q76 86 151 171t153 171q55 61 109 123.5t108 128.5q104 125 155 211t51 168q0 45 -16 88t-48 76.5t-82 55t-118 21.5q-61 0 -103 -18t-71 -41q-53 -47 -70.5 -106.5t-25.5 -110.5h-164q6 37 13.5 77t21.5 81t38.5 81t65.5 74q61 53 140 76t161 23 q190 0 305 -97.5t115 -271.5q0 -92 -26.5 -156.5t-61.5 -119.5q-39 -59 -112.5 -148.5t-160.5 -188t-176 -195.5t-159 -171h559v266h160v-397h-912z" />
<glyph unicode="3" horiz-adv-x="1193" d="M68 393h176q2 -29 9 -66.5t34 -82.5q47 -72 127 -106t168 -34q76 0 132 24t93 63.5t54.5 92t17.5 109.5q0 59 -17.5 110.5t-64.5 96.5q-35 31 -73 48.5t-80 24.5t-88 8t-95 1v137q78 0 145.5 5t126.5 40q59 37 87 95.5t28 130.5q0 121 -80 186t-197 65 q-96 0 -153.5 -31.5t-88 -74.5t-42 -86t-13.5 -64h-170q6 80 36 152t85.5 126t139.5 85t200 31q113 0 191 -24.5t129 -62.5t78.5 -84t41 -88t16.5 -75t3 -45q0 -100 -53 -188.5t-164 -131.5q-18 -6 -36.5 -12t-39.5 -10q12 -4 23.5 -5t23.5 -5q61 -16 112.5 -48t90.5 -77 t60.5 -101.5t21.5 -124.5q0 -96 -35 -175t-99.5 -135t-153.5 -87t-200 -31q-104 0 -205.5 30t-176.5 101q-41 39 -65 80t-36 80t-17 74t-7 59z" />
<glyph unicode="4" horiz-adv-x="1193" d="M72 403v132l518 917h264v-917h283v-132h-283v-274h150v-129h-476v129h158v274h-614zM244 535h442v647v38.5t2 36.5q0 23 1 42.5t3 39.5z" />
<glyph unicode="5" horiz-adv-x="1193" d="M119 395h176q6 -63 25.5 -116.5t64.5 -98.5q39 -39 94.5 -59.5t120.5 -20.5q92 0 140 30t75 60q43 47 62.5 106.5t19.5 147.5q0 84 -22.5 153t-62.5 118t-95 75.5t-121 26.5q-55 0 -97 -16.5t-73 -40t-53.5 -51t-36.5 -47.5l-166 24l61 760h775v-336h-152v207h-477 l-41 -481q16 14 40.5 32.5t60.5 36t84 29.5t112 12q94 0 173 -32.5t136 -95t89 -155t32 -208.5q0 -90 -24.5 -178.5t-81 -157t-146.5 -110.5t-221 -42q-104 0 -189.5 31t-144.5 84q-43 39 -69.5 84t-41 88t-19.5 80t-7 61z" />
<glyph unicode="6" horiz-adv-x="1193" d="M115 674q0 80 6 168t25.5 174t53 166t89.5 145q45 53 93 83t94 45t86 19.5t69 4.5q68 0 118 -11.5t86.5 -28t60.5 -33.5t36 -30q59 -51 87 -112.5t44 -147.5h-170q-12 84 -49 131t-79 69.5t-81 28t-57 5.5q-106 0 -173 -62.5t-105 -153t-52 -189.5t-16 -173 q18 20 46.5 50t71.5 56.5t103.5 45t140.5 18.5q123 0 211 -42t143.5 -109.5t82 -151.5t26.5 -166q0 -139 -46 -235.5t-118 -155.5t-160 -87t-170 -28q-139 0 -231 53.5t-143 122.5q-55 74 -89 198t-34 333zM295 461q0 -78 25.5 -143.5t69.5 -112.5t103.5 -73t127.5 -26 q63 0 121.5 24t102.5 69t69.5 109.5t25.5 144.5q0 90 -27.5 156.5t-72.5 111.5t-102.5 66.5t-116.5 21.5q-66 0 -125.5 -23.5t-103.5 -68.5t-70.5 -109.5t-26.5 -146.5z" />
<glyph unicode="7" horiz-adv-x="1193" d="M147 1081v365h891v-129l-397 -1188h154v-129h-480v129h154l395 1184h-565v-232h-152z" />
<glyph unicode="8" horiz-adv-x="1193" d="M94 379q0 23 4 58.5t21 80.5q29 78 75 120t89 67q51 29 88 37t69 14q-137 35 -217 114.5t-80 221.5q0 109 43 185.5t113 123.5q51 35 128 57.5t175 22.5q94 0 177 -24.5t144.5 -74t97.5 -122t36 -168.5q0 -133 -72 -213t-184 -113q-10 -4 -19.5 -6t-19.5 -4 q12 -4 25.5 -7.5t23.5 -7.5q18 -4 35.5 -9t34.5 -13q66 -29 107.5 -70t65 -87t33 -93t9.5 -84q0 -78 -29 -151.5t-84 -129.5q-41 -43 -90 -69.5t-99.5 -42t-100.5 -20.5t-93 -5q-86 0 -170 16.5t-156 61.5q-61 39 -97 86t-54.5 93t-23.5 87t-5 68zM274 389 q0 -57 19.5 -110.5t59.5 -93.5t99.5 -63.5t141.5 -23.5q72 0 130 21.5t100 61.5t64.5 93t22.5 119q0 74 -27.5 127t-73.5 89t-103.5 52.5t-114.5 16.5q-147 0 -232.5 -80t-85.5 -209zM313 1083q0 -70 24.5 -119t65.5 -80.5t92.5 -46t104.5 -14.5q129 0 208 67.5t79 188.5 q0 68 -25.5 119t-65.5 85t-91.5 50.5t-102.5 16.5q-53 0 -104.5 -16.5t-92 -50.5t-66.5 -83t-26 -117z" />
<glyph unicode="9" horiz-adv-x="1193" d="M82 393h176q2 -20 6 -42.5t17 -55.5q35 -94 106.5 -145.5t169.5 -51.5q86 0 143.5 36t90.5 73q45 51 69.5 118.5t37.5 135t16.5 128t5.5 99.5q-14 -18 -42 -49t-73 -61.5t-108.5 -52t-149.5 -21.5t-169 28.5t-148.5 87t-105.5 148.5t-40 215q0 98 31.5 188.5t94 159 t155 108.5t210.5 40q66 0 138 -17q20 -6 52 -17t68.5 -33.5t75.5 -59.5t72 -92q53 -88 78.5 -218.5t25.5 -265.5q0 -158 -23.5 -304t-83.5 -258t-161.5 -178.5t-257.5 -66.5q-86 0 -165 20.5t-138 61.5q-55 39 -89 88t-52.5 97.5t-24.5 90.5t-8 66zM250 989 q0 -86 26.5 -150.5t71.5 -107.5t102.5 -65.5t118.5 -22.5q55 0 114.5 19.5t108 61.5t79 108.5t30.5 158.5q0 43 -14.5 103.5t-51 116t-100.5 94t-164 38.5q-80 0 -139 -30.5t-100 -79.5t-61.5 -112.5t-20.5 -131.5z" />
<glyph unicode=":" d="M231 0v215h218v-215h-218zM231 852v215h218v-215h-218z" />
<glyph unicode=";" d="M145 -219l113 422h258l-225 -422h-146zM258 854v213h215v-213h-215z" />
<glyph unicode="&#x3c;" horiz-adv-x="1366" d="M0 653v144l1366 655v-131l-1229 -596l1229 -600v-131z" />
<glyph unicode="=" horiz-adv-x="1366" d="M0 354v119h1366v-119h-1366zM0 715v121h1366v-121h-1366z" />
<glyph unicode="&#x3e;" horiz-adv-x="1366" d="M0 -6v131l1229 600l-1229 596v131l1366 -655v-144z" />
<glyph unicode="?" horiz-adv-x="980" d="M27 985q0 25 2 60.5t10 78.5t24.5 90.5t45.5 90.5q51 76 143 124t233 48q104 0 183.5 -30t130.5 -78t76.5 -109.5t25.5 -126.5q0 -53 -13.5 -98.5t-29.5 -80.5q-16 -31 -35.5 -59.5t-47 -62t-65.5 -75.5t-89 -100q-25 -27 -39.5 -46t-21.5 -37.5t-10 -39t-3 -49.5v-127 h-170v115q0 39 3 67.5t15.5 57.5t36 62.5t64.5 80.5q61 70 106 123.5t74 97.5t42 83.5t13 84.5q0 49 -18.5 87t-50 65t-73.5 41t-87 14q-33 0 -82 -9t-92 -38q-47 -31 -73 -71.5t-38 -82.5t-14 -82t-2 -69h-174zM354 0v211h213v-211h-213z" />
<glyph unicode="@" horiz-adv-x="1835" d="M141 498q0 117 30 233.5t86 223t135 198.5t178.5 159.5t216 106.5t247.5 39q156 0 278 -55t206 -147.5t129 -213t45 -254.5q0 -129 -38 -246.5t-98.5 -206.5t-138.5 -141.5t-157 -52.5q-10 0 -28 2t-38 10.5t-42 26t-36 47.5q-16 33 -17 61.5t1 53.5q-14 -25 -28.5 -46.5 t-37.5 -47.5q-47 -47 -104.5 -75t-114.5 -28q-49 0 -96 20.5t-85 63.5t-61.5 108.5t-23.5 158.5q0 117 39 222t101.5 184t142 126t163.5 47q51 0 93 -18.5t73 -48.5q27 -27 38 -53.5t22 -51.5l26 115h121l-61 -277q-6 -33 -19.5 -93t-27 -124.5t-22.5 -121t-9 -83.5 q0 -35 13 -61.5t52 -26.5q45 0 100.5 44t101.5 120t78 176.5t32 212.5q0 125 -42 233.5t-119 188.5t-182.5 126t-230.5 46q-166 0 -302 -71.5t-230 -186.5q-53 -66 -93 -143.5t-68 -160.5t-42 -168t-14 -161q0 -141 45 -261t132 -209t215 -139t296 -50q143 0 255.5 34 t194.5 80t135.5 94t81.5 77l50 -62q-23 -23 -64 -61.5t-111 -83.5q-115 -76 -251 -118t-308 -42q-190 0 -341.5 55.5t-256 154.5t-160 237.5t-55.5 304.5zM696 444q0 -35 2 -55t7 -33q10 -45 32.5 -68.5t45 -34.5t42 -13t25.5 -2q72 0 127 50t90 115q27 49 46.5 106.5 t32.5 112t20.5 102.5t7.5 79q0 96 -46.5 147t-111.5 51q-41 0 -73 -16t-56.5 -37.5t-40 -44t-23.5 -35.5q-25 -39 -47 -89t-40.5 -105.5t-29 -113.5t-10.5 -116z" />
<glyph unicode="A" horiz-adv-x="1280" d="M6 0v129h117l369 1188h-109v129h526v-129h-114l360 -1188h115v-129h-430v129h139l-98 330h-498l-94 -330h129v-129h-412zM422 584h428l-211 712z" />
<glyph unicode="B" horiz-adv-x="1193" d="M41 0v129h152v1188h-152v129h588q35 0 74.5 -2t79.5 -9.5t79 -22.5t74 -44q55 -45 88 -123t33 -166q0 -90 -25.5 -148.5t-60.5 -95t-71 -55t-54 -26.5q20 -6 35.5 -12.5t38.5 -18.5q78 -47 122.5 -128t44.5 -192q0 -76 -18 -139t-53 -110q-39 -55 -85 -86t-97.5 -45.5 t-104.5 -18.5t-106 -4h-582zM365 129h208q68 0 128.5 5t103.5 32q41 27 74.5 86t33.5 151q0 47 -13 93.5t-44 85.5q-27 33 -57.5 50t-63.5 26.5t-65.5 12.5t-61.5 3h-243v-545zM365 809h149q43 0 87 1t85 10t79 29.5t66 57.5q29 39 40.5 85t11.5 83q0 31 -7.5 63.5 t-23.5 63.5q-23 43 -55.5 66.5t-67.5 35t-70.5 14.5t-66.5 5h-227v-514z" />
<glyph unicode="C" horiz-adv-x="1193" d="M92 702q0 100 12 203q4 33 14.5 88.5t32 119t56.5 128t90 115.5q53 49 135 86t186 37q72 0 128.5 -14.5t98.5 -38t70.5 -52t45.5 -59.5l4 133h135v-459h-150q-6 43 -13 79t-19 71q-33 92 -105 151.5t-176 59.5q-35 0 -71 -7.5t-66 -23.5q-74 -37 -117 -106.5t-68 -147.5 q-16 -53 -25 -107.5t-14.5 -103.5t-6.5 -89t-1 -65q0 -33 2 -79t9.5 -98t20.5 -107.5t36 -106.5q14 -31 35.5 -66.5t56.5 -67.5t83 -52.5t116 -20.5q49 0 98 15.5t90 48.5q43 33 68.5 77t40 89t19.5 85t7 66h164q-4 -41 -10 -86t-19.5 -94t-38 -98t-67.5 -94 q-14 -16 -41 -40t-68 -45.5t-99 -37t-134 -15.5q-162 0 -267.5 62.5t-167 165t-86 233.5t-24.5 268z" />
<glyph unicode="D" horiz-adv-x="1280" d="M37 0v129h151v1188h-151v129h524q61 -2 128 -6t132.5 -23.5t127 -61.5t114.5 -118q68 -98 96.5 -230.5t28.5 -261.5q0 -88 -12 -174q-4 -35 -12.5 -77.5t-23 -91t-36 -98.5t-53.5 -95q-51 -74 -109.5 -116t-119 -61.5t-119 -24.5t-111.5 -7h-555zM358 129h148q23 0 42 1 t42 1q45 2 104.5 10.5t118.5 48.5q63 43 102 112t60.5 144.5t29 150.5t7.5 130q0 104 -16.5 205.5t-67.5 193.5q-37 68 -83 106t-95.5 56.5t-99.5 22.5t-97 6h-195v-1188z" />
<glyph unicode="E" horiz-adv-x="1150" d="M41 0v129h149v1188h-149v129h993v-453h-153v324h-519v-479h469v-136h-469v-573h519v358h153v-487h-993z" />
<glyph unicode="F" horiz-adv-x="1024" d="M45 0v129h145v1188h-145v129h924v-453h-160v324h-447v-481h416v-140h-416v-567h152v-129h-469z" />
<glyph unicode="G" horiz-adv-x="1323" d="M94 702q0 29 2 77t9.5 107.5t21.5 125t39 127.5q8 25 35.5 81t83 112.5t143.5 100.5t221 44q74 0 128 -16.5t96 -42t72 -56.5t54 -57l5 141h135v-465h-154q-6 45 -13 91t-30 93q-41 86 -112.5 130t-165.5 44q-61 0 -113 -18q-135 -49 -207 -199.5t-72 -404.5 q0 -51 3.5 -100.5t11.5 -96.5q33 -199 130 -303t238 -104q88 0 151.5 33.5t102.5 80.5q33 41 50.5 89.5t26.5 97.5t11 94t2 80h-344v133h502v-721h-137l-4 143q-23 -27 -53.5 -57.5t-74.5 -56t-106.5 -42t-150.5 -16.5q-129 0 -229.5 54.5t-169 150.5t-103.5 231.5 t-35 294.5z" />
<glyph unicode="H" horiz-adv-x="1323" d="M37 0v129h153v1188h-153v129h477v-129h-152v-483h594v483h-151v129h475v-129h-152v-1188h152v-129h-475v129h151v571h-594v-571h152v-129h-477z" />
<glyph unicode="I" horiz-adv-x="555" d="M37 0v129h151v1188h-151v129h477v-129h-154v-1188h154v-129h-477z" />
<glyph unicode="J" horiz-adv-x="811" d="M0 20v160q63 -27 130 -50.5t140 -23.5q8 0 27.5 1.5t42 8.5t45.5 20.5t41 37.5q29 35 33 81t4 120v942h-154v129h477v-129h-151v-926q0 -47 -2 -94t-11.5 -92t-31 -84t-58.5 -72q-51 -43 -116.5 -59.5t-132.5 -16.5q-35 0 -110 8.5t-173 38.5z" />
<glyph unicode="K" horiz-adv-x="1236" d="M39 0v129h151v1188h-151v129h475v-129h-154v-543l527 543h-144v129h457v-129h-106l-447 -455l449 -733h121v-129h-472v129h144l-361 616l-168 -163v-453h154v-129h-475z" />
<glyph unicode="L" horiz-adv-x="980" d="M41 0v129h152v1188h-152v129h475v-129h-154v-1188h431v360h153v-489h-905z" />
<glyph unicode="M" horiz-adv-x="1622" d="M41 0v129h152v1188h-152v129h414l352 -1239l348 1239h418v-129h-146v-1188h146v-129h-445v129h140v1188l-369 -1317h-184l-381 1317v-1188h121v-129h-414z" />
<glyph unicode="N" horiz-adv-x="1280" d="M41 0v129h149v1188h-149v129h428l473 -1305v1176h-147v129h456v-129h-153v-1317h-273l-479 1317v-1188h150v-129h-455z" />
<glyph unicode="O" horiz-adv-x="1280" d="M92 700q0 86 9.5 177.5t33 178.5t64.5 163.5t102 134.5q53 47 136 85t198 38q94 0 181 -29t157 -90q63 -55 104 -127t65.5 -153t34 -167t9.5 -170q0 -72 -6 -143.5t-23 -142.5q-18 -92 -55 -181.5t-109 -162.5q-14 -14 -40.5 -38t-69.5 -46.5t-104.5 -39t-141.5 -16.5 q-182 0 -301 91.5t-178 244.5q-41 100 -53.5 199.5t-12.5 193.5zM264 709q0 -53 3 -105.5t14 -105.5q14 -78 41.5 -147.5t71.5 -123t104.5 -85t138.5 -31.5t135 29.5t99 79.5t70 115.5t44 135.5t22.5 138.5t6.5 125.5q0 123 -23.5 232.5t-70 191.5t-115 130t-160.5 48 q-98 0 -170 -48t-119 -133t-69.5 -199.5t-22.5 -247.5z" />
<glyph unicode="P" horiz-adv-x="1110" d="M37 0v129h156v1188h-156v129h518q47 0 102.5 -3t109.5 -18.5t105.5 -48.5t90.5 -90q35 -53 55 -124.5t20 -149.5q0 -84 -24.5 -164t-79.5 -143q-41 -45 -86 -70t-93 -37t-96.5 -15t-95.5 -3h-198v-451h149v-129h-477zM365 709h149q55 0 116.5 6t113 34.5t84 90 t32.5 172.5q0 47 -10 100t-39 94q-27 39 -60.5 61.5t-71.5 33t-77 13.5t-76 3h-161v-608z" />
<glyph unicode="Q" horiz-adv-x="1280" d="M92 709q0 158 27.5 281.5t70.5 211.5q25 49 62 99.5t91 89.5t126 63.5t168 24.5q115 0 218 -44t175 -132q45 -55 75 -122t48 -139.5t25.5 -147.5t7.5 -146q0 -125 -21.5 -255.5t-68.5 -230.5q-37 -78 -80 -127t-87 -78.5t-85 -45t-72 -25.5q63 -35 106.5 -58.5t81 -44 t78.5 -40t103 -48.5l-140 -121q-102 59 -167.5 98.5t-122 73t-113.5 69.5t-139 87q-10 4 -18.5 6t-16.5 6q-156 66 -244 244t-88 451zM264 711q0 -133 24.5 -243t72 -189.5t117 -123.5t159.5 -44q96 0 166.5 49t118 134t70 200.5t22.5 250.5q0 137 -28 248t-77 187.5 t-116.5 117.5t-147.5 41q-121 0 -195.5 -66.5t-115.5 -163.5t-55.5 -205.5t-14.5 -192.5z" />
<glyph unicode="R" horiz-adv-x="1236" d="M41 0v129h147v1188h-147v129h604q49 0 100.5 -3t99.5 -15.5t91 -39t76 -73.5q29 -41 45 -102.5t16 -120.5q0 -53 -9 -93.5t-23.5 -69t-30 -49t-29.5 -34.5q-43 -45 -88 -63.5t-88 -30.5q45 -16 74.5 -35t49 -45.5t33 -62.5t23.5 -87l74 -393h139v-129h-295l-84 504 q-12 55 -29.5 92t-45 58.5t-68.5 29.5t-103 8h-211v-563h156v-129h-477zM362 825h267q47 2 102 10.5t103 53.5q8 8 19 21.5t21.5 35t18.5 54t8 77.5q0 57 -15.5 102.5t-39.5 73.5q-39 45 -90 53.5t-133 10.5h-261v-492z" />
<glyph unicode="S" horiz-adv-x="1110" d="M96 0v492h148q4 -39 19.5 -108t62.5 -138q45 -68 117.5 -105t154.5 -37q53 0 100 18.5t82 53.5t55.5 83t20.5 108q0 59 -20.5 101t-40.5 64q-18 23 -44 40.5t-64 35t-90 38t-126 46.5q-43 16 -103.5 43t-116.5 73t-95 114.5t-39 169.5q0 74 25.5 142.5t74.5 122.5t122 87 t165 33q49 0 96 -9.5t92 -31.5q47 -23 83 -56.5t59 -66.5q4 -4 7 -10.5t7 -10.5l4 156h135v-459h-149q-8 59 -21.5 119.5t-54.5 114.5q-35 49 -96.5 84.5t-145.5 35.5q-63 0 -109 -20t-77 -54t-45.5 -75t-14.5 -84q0 -63 24 -106t60.5 -73t82.5 -49.5t91 -33.5 q35 -12 70 -24.5t70 -26.5q49 -18 109.5 -48t114.5 -78t90 -120t36 -176q0 -102 -35 -177t-93 -125t-132 -75t-152 -25q-84 0 -170 31q-82 31 -124 73t-72 81l-6 -158h-142z" />
<glyph unicode="T" horiz-adv-x="1150" d="M41 989v457h1061v-457h-148v328h-299v-1188h152v-129h-469v129h149v1188h-299v-328h-147z" />
<glyph unicode="U" horiz-adv-x="1236" d="M18 1317v129h476v-129h-154v-768q0 -92 6 -169t37 -138q41 -80 108.5 -109t129.5 -29q86 0 150.5 38t98.5 116q10 25 16.5 53.5t9.5 63.5t4 82t1 108v752h-156v129h469v-129h-147v-871q-2 -68 -12.5 -145.5t-63.5 -155.5q-20 -31 -53 -61.5t-78 -55t-103.5 -40 t-127.5 -15.5q-117 0 -211 42t-154 118q-35 45 -53 92t-27.5 97.5t-11.5 103.5t-2 109v782h-152z" />
<glyph unicode="V" horiz-adv-x="1280" d="M0 1317v129h440v-129h-143l342 -1157l358 1157h-143v129h424v-129h-121l-420 -1317h-213l-407 1317h-117z" />
<glyph unicode="W" horiz-adv-x="1878" d="M-2 1317v129h438v-129h-141l254 -1139l268 1268h242l301 -1282l242 1153h-140v129h416v-129h-115l-284 -1317h-238l-307 1294l-275 -1294h-237l-297 1317h-127z" />
<glyph unicode="X" horiz-adv-x="1193" d="M23 0v129h114l377 623l-328 565h-123v129h465v-129h-147l225 -410l240 410h-152v129h451v-129h-121l-328 -555l361 -633h117v-129h-472v129h156l-262 477l-281 -477h154v-129h-446z" />
<glyph unicode="Y" horiz-adv-x="1110" d="M-8 1317v129h442v-129h-153l280 -643l289 643h-123v129h395v-129h-104l-381 -809v-379h154v-129h-478v129h154v391l-369 797h-106z" />
<glyph unicode="Z" horiz-adv-x="1110" d="M100 0v129l723 1188h-530v-326h-156v455h879v-129l-723 -1188h567v365h156v-494h-916z" />
<glyph unicode="[" d="M182 -403v1884h365v-135h-193v-1612h193v-137h-365z" />
<glyph unicode="\" horiz-adv-x="768" d="M-12 1665h164l622 -1878h-160z" />
<glyph unicode="]" d="M47 -266h195v1612h-195v135h367v-1884h-367v137z" />
<glyph unicode="^" horiz-adv-x="1492" d="M319 717l369 729h129l357 -729h-156l-268 559l-275 -559h-156z" />
<glyph unicode="_" horiz-adv-x="1024" d="M0 -154h1024v-102h-1024v102z" />
<glyph unicode="`" d="M145 1516h226l80 -273h-144z" />
<glyph unicode="a" horiz-adv-x="1067" d="M84 291q0 72 28.5 139.5t77.5 112.5q37 31 83 51t98.5 32.5t109 17.5t111.5 5q29 0 60.5 -1t60.5 -3v70q-2 59 -10.5 111.5t-51.5 88.5q-23 18 -56.5 29.5t-74.5 11.5q-29 0 -63.5 -8t-65.5 -27.5t-53.5 -55.5t-26.5 -91h-176q6 49 22.5 111.5t78.5 118.5 q43 39 113.5 63.5t166.5 24.5q80 0 157 -26t130 -85q27 -31 41 -63.5t21 -68.5t9.5 -73t4.5 -76v-571h147v-129h-303l-10 125q-16 -20 -39 -46t-56.5 -49.5t-81 -40t-110.5 -16.5q-80 0 -142.5 25t-107.5 68t-68.5 101t-23.5 124zM258 299q0 -80 49 -137.5t144 -57.5 q66 0 110.5 24t69.5 48q25 25 40 52.5t24.5 66.5t12.5 94t5 133q-41 4 -72 6t-63 2q-84 0 -124 -11t-55 -15q-70 -29 -105.5 -84t-35.5 -121z" />
<glyph unicode="b" horiz-adv-x="1150" d="M41 0v129h152v1188h-152v129h319v-498q14 18 26.5 33.5t35.5 34.5q29 25 85 50.5t140 25.5q106 0 187 -42t134.5 -116t80 -174.5t26.5 -216.5q0 -86 -13 -172t-52 -164q-55 -113 -151.5 -172.5t-207.5 -59.5q-59 0 -116.5 18.5t-102.5 53.5q-35 29 -55.5 57.5t-34.5 53.5 l-4 -158h-297zM360 524q0 -78 16.5 -164t57.5 -143q8 -14 24.5 -31.5t40 -33t54.5 -25.5t70 -10q57 0 108 26q49 27 81 69t51.5 93t26.5 108.5t7 112.5q0 72 -10 143.5t-43 137.5q-12 25 -31.5 51.5t-47.5 49t-62.5 36.5t-79.5 14q-82 0 -142 -53q-35 -31 -58.5 -72.5 t-37.5 -91t-19.5 -104.5t-5.5 -113z" />
<glyph unicode="c" horiz-adv-x="937" d="M80 516q0 147 26.5 242.5t63.5 156.5q47 76 121 126.5t182 50.5q59 0 103.5 -14.5t77 -36t55 -47t39.5 -46.5l10 111h129v-367h-144q-6 31 -15 65t-30 72q-10 20 -27.5 43t-41 42.5t-53 31.5t-66.5 12t-69.5 -12t-57.5 -33q-68 -53 -98 -161q-18 -59 -24.5 -120 t-6.5 -122q0 -78 13.5 -156t54.5 -143q20 -33 63 -69t123 -36q51 0 92 19.5t70 50.5q20 25 33.5 51.5t21.5 52t11 46t5 32.5h162q-2 -23 -8 -60.5t-22.5 -81.5t-45 -88t-75.5 -81q-29 -23 -88.5 -48.5t-151.5 -25.5q-94 0 -158.5 25t-105.5 57.5t-63.5 65.5t-30.5 49 q-43 78 -58.5 166t-15.5 180z" />
<glyph unicode="d" horiz-adv-x="1150" d="M80 535q0 111 27.5 211t81 176.5t133 123t184.5 46.5q61 0 107 -15.5t80 -37t57.5 -48t42.5 -47.5v373h-162v129h330v-1317h153v-129h-301l-2 145q-20 -31 -45 -61.5t-66 -54.5q-47 -31 -104 -42.5t-100 -11.5q-104 0 -182 45.5t-130.5 122t-78 178t-25.5 214.5zM258 539 q0 -66 8 -127.5t33 -120.5q14 -33 34.5 -64.5t49.5 -57.5t64.5 -42t78.5 -16q47 0 91.5 21.5t78.5 60.5q53 59 75 150t22 185q0 76 -13.5 155t-40.5 128q-10 20 -28.5 44t-44 44.5t-59.5 33.5t-77 13q-57 0 -106 -27.5t-86 -80t-58.5 -128t-21.5 -171.5z" />
<glyph unicode="e" horiz-adv-x="1067" d="M76 528q0 74 11 145.5t35.5 137.5t65.5 121t103 94q45 29 104.5 47.5t136.5 18.5q123 0 202 -40t126 -93.5t68.5 -104.5t27.5 -74q25 -78 29 -136t4 -118h-735q-1 -23 -1 -48v-26q1 -38 11 -85q23 -109 91.5 -182.5t189.5 -73.5q66 0 110.5 23.5t69.5 49.5q39 41 53.5 83 t18.5 69h170q-14 -96 -52 -164t-94.5 -112t-129.5 -64.5t-154 -20.5q-59 0 -130 15.5t-131 56.5q-53 35 -91 87t-62.5 114.5t-35.5 134.5t-11 145zM258 653h555q-16 158 -95 231.5t-183 73.5q-51 0 -89 -13t-66 -33.5t-45.5 -44t-27.5 -42.5q-29 -51 -37 -93t-12 -79z" />
<glyph unicode="f" d="M49 0v129h152v809h-152v129h152v68q2 84 10 149.5t59 118.5q45 45 100.5 58.5t118.5 13.5q39 0 70 -4.5t72 -10.5v-133q-27 6 -52.5 11t-54.5 5q-27 0 -52.5 -6t-45.5 -22q-41 -31 -47 -72t-6 -106v-70h202v-129h-202v-809h153v-129h-477z" />
<glyph unicode="g" horiz-adv-x="1110" d="M78 563q0 100 23.5 195.5t74.5 169t130 119t188 45.5q37 0 71 -7q57 -10 110.5 -36.5t98.5 -81.5q10 -12 16.5 -23.5t14.5 -23.5l8 147h303v-129h-153q-2 -215 -2 -427v-429q0 -76 -2.5 -136.5t-11.5 -111.5t-29.5 -93t-57.5 -81q-49 -51 -131 -84t-192 -33 q-82 0 -161 22.5t-140 74.5q-41 33 -65 67.5t-37 66t-18 59.5t-7 46h176q4 -25 12 -49.5t31 -54.5q47 -59 108.5 -76.5t102.5 -17.5q18 0 61 5t84 31q41 25 62.5 56.5t31.5 67.5t12.5 75t2.5 76v168q-25 -35 -51.5 -63.5t-73.5 -53.5q-31 -16 -75 -29.5t-97 -13.5 q-80 0 -153 31.5t-132 97.5q-14 16 -36.5 47t-44 81t-37 126t-15.5 180zM252 557q0 -47 5 -93t17 -91q33 -113 100.5 -172.5t149.5 -59.5q45 0 88 18.5t72 47.5q61 59 86 149t25 189q0 59 -8.5 119.5t-30.5 117.5q-35 84 -95.5 128t-136.5 44q-39 0 -72.5 -12t-58.5 -31 q-45 -31 -72.5 -75.5t-43 -94t-20.5 -97.5t-5 -87z" />
<glyph unicode="h" horiz-adv-x="1193" d="M43 0v129h150v1188h-150v129h322v-533q16 27 38.5 59t59.5 58.5t90 44t131 17.5q66 0 126 -18.5t110 -61.5q33 -31 51 -65t26.5 -68.5t10.5 -68.5t2 -65v-616h145v-129h-465v129h148v590q-2 45 -8.5 91t-41.5 85q-20 23 -57 43t-90 20q-47 0 -95 -17t-85 -54 q-35 -35 -54.5 -78t-28.5 -91t-11 -96.5t-2 -93.5v-399h151v-129h-473z" />
<glyph unicode="i" horiz-adv-x="555" d="M45 0v129h158v809h-158v129h328v-938h151v-129h-479zM174 1280v166h199v-166h-199z" />
<glyph unicode="j" horiz-adv-x="512" d="M-119 -297q29 -10 60.5 -17.5t66.5 -7.5q66 0 100.5 23t51 55.5t18.5 69.5t2 63v1049h-155v129h327v-1157q-2 -82 -10 -152.5t-57 -128.5q-43 -49 -106.5 -67.5t-129.5 -18.5q-43 0 -84 6.5t-84 14.5v139zM152 1282v166h198v-166h-198z" />
<glyph unicode="k" horiz-adv-x="1067" d="M43 0v129h150v1188h-150v129h319v-862l373 354h-143v129h436v-129h-108l-277 -256l322 -553h98v-129h-420v129h125l-248 436l-158 -143v-293h134v-129h-453z" />
<glyph unicode="l" horiz-adv-x="555" d="M47 0v129h150v1188h-150v129h322v-1317h149v-129h-471z" />
<glyph unicode="m" horiz-adv-x="1662" d="M59 0v129h148v809h-148v129h303l7 -149q8 16 24.5 44.5t48 57.5t80.5 49.5t123 20.5q16 0 49 -3.5t70 -17.5q41 -16 67.5 -37.5t43 -45t25.5 -46t15 -41.5q8 18 17.5 40t25.5 46q10 14 29 31.5t46.5 34t65.5 28t89 11.5q61 0 104 -15.5t73 -35t47.5 -40t23.5 -32.5 q33 -53 38 -112.5t7 -135.5v-590h153v-129h-475v129h150v510v77t-4 77q-2 23 -7.5 45t-15.5 43q-18 35 -51 52t-72 17q-47 0 -88 -22.5t-70 -61.5q-53 -70 -63 -162t-10 -200v-375h119v-129h-414v129h127v530q0 49 -1 83t-3 58.5t-6.5 43t-12.5 35.5q-23 41 -58.5 56 t-70.5 15q-45 0 -75.5 -16t-49.5 -33q-39 -35 -59.5 -79t-30.5 -93t-12 -98t-2 -90v-412h153v-129h-473z" />
<glyph unicode="n" horiz-adv-x="1193" d="M53 0v129h148v809h-148v129h314l6 -166q8 16 19 39t32 45q39 45 105.5 77t156.5 32q53 0 103.5 -12.5t93.5 -41.5q45 -31 69.5 -68.5t36.5 -79.5t14.5 -87t2.5 -88v-588h155v-129h-477v129h150v541q0 86 -9.5 145t-58.5 100q-27 23 -59.5 32t-63.5 9q-55 0 -104.5 -23.5 t-83.5 -68.5q-29 -35 -45.5 -79t-23.5 -92t-10 -98t-3 -97v-369h153v-129h-473z" />
<glyph unicode="o" horiz-adv-x="1067" d="M78 514q0 63 7 129t25.5 127t49 116.5t76.5 100.5q55 53 126 77q72 22 142 26q15 1 31 1q55 1 103 -9q62 -12 99 -29q115 -51 182.5 -182.5t67.5 -323.5q0 -90 -20.5 -196.5t-79.5 -198.5q-10 -16 -33 -47t-64.5 -60t-105 -50.5t-154.5 -21.5q-72 0 -152.5 20.5 t-146.5 84.5q-78 72 -115.5 184.5t-37.5 251.5zM250 530q0 -63 6 -120.5t29 -112.5q4 -14 18 -45t42 -62.5t72 -55t109 -23.5q137 0 213 111.5t76 312.5q0 84 -14.5 156.5t-36.5 117.5q-10 20 -27.5 46t-44 48.5t-64.5 37.5t-89 15q-29 0 -57.5 -6t-57.5 -20 q-51 -25 -85 -68t-53.5 -96t-27.5 -113.5t-8 -122.5z" />
<glyph unicode="p" horiz-adv-x="1150" d="M41 -287h152v1225h-152v129h301l6 -149q20 27 47 56.5t62 56t82 44t108 17.5q59 0 134 -25t141 -90q86 -86 117.5 -204t31.5 -241q0 -143 -35 -248.5t-92 -174t-131 -102.5t-154 -34q-66 0 -114.5 16.5t-84.5 39t-59.5 46t-35.5 40.5v-402h153v-129h-477v129zM360 520 q0 -59 9.5 -118.5t31.5 -114.5q31 -78 86.5 -126t139.5 -48q74 0 133 43q43 31 69.5 75.5t42 97t21.5 108t6 104.5q0 82 -16.5 154.5t-50 128t-84.5 88t-119 32.5q-72 0 -123 -35t-84 -94t-47.5 -136t-14.5 -159z" />
<glyph unicode="q" horiz-adv-x="1150" d="M80 532q0 96 18.5 188.5t65.5 174.5q57 96 147 146.5t193 50.5q61 0 108 -17.5t83 -44t62.5 -56.5t47.5 -56l6 149h301v-129h-151v-1225h151v-129h-477v129h153v402q-12 -16 -35.5 -40t-59.5 -46.5t-86 -39t-113 -16.5q-80 0 -155 34t-132 102.5t-92 174t-35 248.5z M252 541q0 -55 6 -111q6 -41 15.5 -81t25.5 -77q35 -72 91 -115.5t136 -43.5q43 0 86 16t80 57q55 61 77 152.5t22 181.5q0 82 -14.5 159t-47.5 136t-83 94t-124 35q-68 0 -119 -32.5t-84.5 -88t-50 -128t-16.5 -154.5z" />
<glyph unicode="r" horiz-adv-x="724" d="M51 0v129h152v809h-152v129h297l6 -172q14 31 31.5 61.5t54.5 63.5q39 33 86 49t97 16q25 0 46 -4t50 -8v-172q-23 4 -43.5 6t-42.5 2q-41 0 -73 -9t-55.5 -23.5t-39.5 -28.5t-25 -27q-51 -63 -59 -137t-8 -139v-416h155v-129h-477z" />
<glyph unicode="s" horiz-adv-x="894" d="M76 0v369h139q6 -35 16.5 -71t34.5 -75q6 -10 22.5 -29.5t41 -38t59.5 -32.5t78 -14q86 0 137 48t51 115q0 27 -6 43.5t-10 24.5q-16 35 -45 56.5t-64 37.5q-14 6 -55 22.5t-88 34t-90 34t-59 24.5q-12 6 -39 21.5t-52.5 44t-45 71.5t-19.5 105q0 74 26.5 130t70.5 94 t99.5 57.5t112.5 19.5q63 0 109.5 -16.5t78 -39t52 -46t31.5 -38.5l6 115h131v-358h-137q-4 27 -10.5 59.5t-22.5 60.5q-33 61 -89.5 95t-121.5 34q-84 0 -127 -45t-43 -104q0 -35 13 -59.5t28 -38.5q25 -23 62.5 -38.5t103.5 -37.5q66 -23 131 -48.5t117.5 -64.5t85 -96 t32.5 -143q0 -63 -21.5 -120t-63.5 -98.5t-104.5 -66.5t-144.5 -25q-39 0 -70.5 7.5t-58.5 17.5q-59 23 -88.5 55.5t-54.5 67.5l-8 -121h-131z" />
<glyph unicode="t" horiz-adv-x="641" d="M27 938v129h157v229l172 37v-266h234v-129h-234v-684q0 -25 4.5 -49.5t17.5 -44t39.5 -31.5t74.5 -12q29 0 56 4t56 8v-135q-41 -6 -74.5 -10t-68.5 -4q-102 0 -158.5 25.5t-82 65.5t-31 87t-5.5 90v690h-157z" />
<glyph unicode="u" horiz-adv-x="1110" d="M10 938v129h322v-719q2 -47 12 -102.5t59 -93.5q31 -25 67 -32t58 -7q80 0 126 48t68.5 120.5t29 155.5t6.5 153v348h-152v129h322v-938h151v-129h-297l-10 147q-10 -20 -29.5 -48.5t-53.5 -56.5t-86 -47.5t-130 -19.5q-41 0 -96 12.5t-109 53.5q-39 33 -60.5 71 t-31.5 77.5t-12 78.5t-2 72v598h-152z" />
<glyph unicode="v" horiz-adv-x="1024" d="M-2 938v129h426v-129h-139l241 -772l236 772h-150v129h418v-129h-108l-299 -938h-213l-301 938h-111z" />
<glyph unicode="w" horiz-adv-x="1705" d="M2 938v129h434v-129h-151l213 -758l256 887h217l254 -887l213 758h-148v129h410v-129h-107l-268 -938h-213l-260 901l-260 -901h-211l-266 938h-113z" />
<glyph unicode="x" horiz-adv-x="980" d="M8 0v129h105l284 420l-254 389h-110v129h401v-129h-96l158 -256l153 256h-98v129h389v-129h-115l-243 -373l284 -436h103v-129h-430v129h135l-195 305l-196 -305h125v-129h-400z" />
<glyph unicode="y" horiz-adv-x="1067" d="M4 938v129h428v-129h-137l250 -741l246 741h-140v129h410v-129h-107l-374 -1067q-25 -72 -51.5 -132.5t-63.5 -103.5t-90 -67.5t-133 -24.5q-47 0 -89 7.5t-83 17.5v151q29 -14 60.5 -26t78.5 -12q57 0 96 22.5t66.5 62t47 95t40.5 121.5l-346 956h-109z" />
<glyph unicode="z" horiz-adv-x="894" d="M33 0v129l590 807h-418v-221h-154v352h787v-129l-596 -809h444v238h152v-367h-805z" />
<glyph unicode="{" horiz-adv-x="724" d="M113 469v141q59 4 93 25.5t51 61.5t22.5 98.5t5.5 136.5v137q0 100 9 178t62 137q31 35 67 53.5t77 28t83 12.5t85 3v-138q-47 -4 -89 -13t-71 -44q-35 -39 -40 -102.5t-5 -122.5v-88q0 -92 -3 -166t-20.5 -127t-52.5 -87t-100 -48v-10q25 -4 69.5 -26t75.5 -87 q10 -25 16.5 -54.5t9.5 -69.5t4 -93t1 -127v-62q0 -59 5 -121.5t40 -101.5q29 -35 71 -44t89 -13v-137q-41 0 -82 2t-80 10t-75 25.5t-66 48.5q-59 61 -69.5 143t-10.5 178v141q0 78 -5.5 136.5t-22.5 98.5t-51 61.5t-93 25.5z" />
<glyph unicode="|" horiz-adv-x="468" d="M174 -512v2048h123v-2048h-123z" />
<glyph unicode="}" horiz-adv-x="724" d="M115 -264q47 4 89 13t70 44q35 39 40 102.5t5 122.5v88q0 92 3.5 165t19.5 126.5t51 87t101 50.5v10q-12 2 -31 7t-39.5 17.5t-39.5 34t-34 53.5q-10 25 -16 54.5t-9 69.5t-4.5 93.5t-1.5 126.5v62q0 59 -5 121.5t-40 101.5q-29 35 -70.5 44t-88.5 13v138q41 0 82 -2 t79.5 -10.5t74.5 -26t67 -47.5q57 -61 68.5 -144.5t11.5 -179.5v-139q0 -78 5 -136.5t21.5 -98.5t50 -61.5t93.5 -25.5l2 -141q-59 -4 -93 -25.5t-51.5 -61.5t-22.5 -98.5t-5 -136.5v-137q0 -100 -9.5 -178t-62.5 -137q-31 -35 -66.5 -54.5t-76.5 -28.5t-83 -11t-85 -2v137z " />
<glyph unicode="~" horiz-adv-x="1492" d="M274 582q12 16 33 43.5t51.5 53.5t72.5 45t95 19q59 0 115.5 -21.5t116.5 -49.5l65 -31q51 -23 78 -32t55 -9q35 0 65 12.5t54.5 31t44 41t35.5 42.5l64 -113q-51 -63 -114 -110t-149 -47q-45 0 -87 15t-111 48l-60 31q-33 16 -78 33.5t-92 17.5q-43 0 -75 -18 q-12 -6 -21.5 -13.5t-21 -18.5t-26.5 -30.5t-42 -52.5z" />
<glyph unicode="&#xa0;" />
<glyph unicode="&#xa1;" d="M147 0l17 1077h174l20 -1077h-211zM147 1233v213h211v-213h-211z" />
<glyph unicode="&#xa2;" horiz-adv-x="980" d="M86 516q0 37 4 98.5t20.5 131t49.5 139t92 123.5q59 51 113.5 65t78.5 17l-2 210h150l-4 -225q41 -10 81 -38.5t85 -88.5l10 111h129v-367h-143q-8 39 -24.5 92.5t-57.5 102.5q-33 39 -56.5 48t-33.5 11v-829q20 6 42.5 16t51.5 39q23 25 37 52.5t22 53t11 47t6 33.5h161 q-2 -23 -7 -54.5t-17.5 -69t-33 -76.5t-54.5 -76q-31 -31 -63 -50.5t-60.5 -30.5t-53 -15t-40.5 -6l2 -211h-144l4 213q-18 2 -44.5 7t-57.5 17t-64.5 34.5t-64.5 57.5q-16 16 -36.5 48t-41 83.5t-34 122t-13.5 164.5zM260 512q0 -51 5 -101.5t20 -99.5q4 -18 15 -46.5 t30.5 -57.5t48.5 -53.5t70 -34.5v827q-16 -6 -28.5 -11t-31.5 -22q-37 -31 -60.5 -72.5t-37.5 -88.5q-18 -59 -24.5 -120t-6.5 -120z" />
<glyph unicode="&#xa3;" horiz-adv-x="1150" d="M41 0v129h147l84 588h-155v123h172q14 90 22 143t13.5 84t7.5 45t6 29q10 49 30.5 98t61.5 96q35 39 73 61.5t79 33t85 13.5t91 3h200v-135q-94 0 -153.5 -1t-99 -5.5t-64.5 -15.5t-49 -32q-31 -29 -50.5 -64.5t-33.5 -84.5t-23.5 -114.5t-21.5 -153.5h311v-123h-330 l-82 -588h580v387h154v-516h-1055z" />
<glyph unicode="&#xa4;" horiz-adv-x="1366" d="M117 223l153 150q-16 20 -35.5 49t-36 67.5t-28.5 89t-12 115.5q0 63 12 114.5t28.5 91.5t36 68.5t33.5 47.5l-147 149l92 92l147 -149q18 14 47 33.5t69 37t91 30t117 12.5q63 0 114.5 -12.5t90.5 -29t67.5 -36t49.5 -33.5l149 150l94 -95l-151 -149q14 -20 33.5 -48 t36 -67t28.5 -89t12 -116t-12 -118t-29.5 -90.5t-37 -67.5t-33.5 -47l151 -152l-94 -94l-149 154q-20 -14 -48 -34t-67 -36t-90 -28.5t-115 -12.5q-66 0 -118 12.5t-91 28.5t-67.5 35.5t-47.5 34.5l-151 -150zM281 696q0 -86 31.5 -160.5t87 -129t129 -85t157.5 -30.5 q82 0 154.5 30.5t127 85t85 129t30.5 162.5t-31.5 162t-87 127t-128 83t-154.5 30q-84 0 -156.5 -31t-127 -84t-86 -127t-31.5 -162z" />
<glyph unicode="&#xa5;" horiz-adv-x="1110" d="M-8 1317v129h442v-129h-153l280 -645l289 645h-123v129h395v-129h-104l-254 -541h287v-129h-349l-65 -129v-12h414v-129h-414v-248h154v-129h-478v129h154v248h-408v129h408v14l-57 127h-353v129h291l-250 541h-106z" />
<glyph unicode="&#xa6;" horiz-adv-x="468" d="M174 358h123v-716h-123v716zM174 666v716h123v-716h-123z" />
<glyph unicode="&#xa7;" horiz-adv-x="980" d="M84 580q0 59 24.5 115.5t67.5 97.5q29 25 52.5 38t45.5 23q-27 25 -53 51.5t-47.5 60t-35 77.5t-13.5 104q0 66 19.5 120t50.5 91q53 68 130.5 94.5t163.5 26.5q68 0 136.5 -19.5t128.5 -73.5q37 -35 58.5 -71.5t32.5 -74.5t15 -76t6 -74h-166q-2 33 -7 67.5t-23 71.5 q-23 45 -71 82t-120 37q-63 0 -100 -25t-56.5 -57.5t-24.5 -66.5t-5 -50q0 -98 60.5 -158.5t158.5 -118.5q47 -29 95 -55t95 -55q31 -18 69 -45t70.5 -64t55.5 -86t23 -114q0 -61 -19.5 -108.5t-48.5 -81.5t-63.5 -59.5t-65.5 -43.5q23 -25 47.5 -52.5t44 -61.5t31.5 -74 t12 -91q0 -63 -23.5 -121.5t-68.5 -104.5t-112.5 -73.5t-155.5 -27.5q-74 0 -142.5 22.5t-115.5 61.5q-41 33 -63.5 72.5t-35 79.5t-16.5 77t-6 65h164q2 -27 6 -55.5t20 -60.5q20 -45 67.5 -87t125.5 -42q51 0 88 19.5t60.5 48t34.5 63.5t11 65q0 41 -14 75t-35.5 59.5 t-47.5 46t-48 36.5q-12 8 -46 30t-72 45.5t-71.5 44t-48.5 30.5q-29 18 -67.5 47t-74.5 69t-61.5 93t-25.5 121zM240 588q0 -41 15 -74t37.5 -57.5t46 -42t42.5 -27.5q25 -16 54.5 -34.5t60 -38t60.5 -39t54 -33.5q14 8 39 23.5t49.5 40t42 59t17.5 79.5q0 76 -44 121 t-98 78q-31 20 -62.5 37.5t-64.5 36.5q-29 16 -56 33.5t-56 33.5q-29 -16 -53.5 -33.5t-47.5 -50.5t-29.5 -60.5t-6.5 -51.5z" />
<glyph unicode="&#xa8;" d="M61 1296v168h185v-168h-185zM350 1296v168h185v-168h-185z" />
<glyph unicode="&#xa9;" horiz-adv-x="1705" d="M125 723q0 158 58.5 291t158.5 230t232.5 152.5t279.5 55.5q158 0 291 -58.5t230.5 -157.5t152.5 -231.5t55 -279.5q0 -152 -56.5 -285t-154.5 -232t-231 -156.5t-289 -57.5q-141 0 -273.5 53t-232.5 149.5t-160.5 230.5t-60.5 296zM190 723q0 -139 52.5 -261t142.5 -211 t211 -140.5t258 -51.5q141 0 262 52.5t210 142.5t140.5 211t51.5 260q0 135 -50.5 256t-138.5 211t-209 142t-262 52t-263 -52t-212 -142t-141.5 -211t-51.5 -258zM408 739q0 29 3 74t16 95t41 101.5t79 92.5q45 35 116.5 59.5t176.5 24.5h24t29.5 -2t52.5 -4t94 -9 q31 -4 60.5 -6t81.5 -2q4 -49 6 -79.5t5 -58.5t6 -57.5t7 -74.5h-49q-10 39 -23.5 83t-40 81t-71.5 61.5t-119 24.5q-72 0 -122 -22.5t-81.5 -59.5t-49 -81t-27 -88t-10.5 -81t-1 -59q0 -23 1 -58t6.5 -77t15.5 -86t27 -80q39 -88 100 -125t153 -37q12 0 40 2t58.5 13 t62.5 36t54 68q16 33 23.5 66.5t11.5 66.5h49v-78v-60.5t1.5 -56.5t1.5 -67q-53 -4 -90 -7.5t-66 -7.5q-57 -6 -91 -10t-56.5 -5t-37 -2t-30.5 -1q-92 0 -180 27.5t-150 97.5q-51 59 -79.5 153t-28.5 215z" />
<glyph unicode="&#xaa;" horiz-adv-x="681" d="M59 983q0 47 19.5 88t50.5 68q45 39 113.5 52t136.5 13q16 0 34.5 -1t35.5 -1q0 61 -4.5 101t-30.5 65q-31 27 -80 27q-8 0 -26.5 -2t-39 -13.5t-38 -34t-21.5 -63.5h-119q2 4 4 19.5t2 19.5q16 80 81 119t155 39q43 0 74.5 -8.5t53 -19.5t34 -22.5t18.5 -17.5 q35 -37 41 -81t8 -95v-352h92v-80h-198l-4 67q-16 -20 -57.5 -52t-117.5 -32q-53 0 -94 16.5t-68.5 44t-41 63.5t-13.5 73zM176 987q0 -47 28.5 -83t86.5 -36q39 0 66.5 14.5t43.5 30.5q29 31 37.5 75t10.5 136q-29 4 -43.5 5t-34.5 1q-61 0 -98 -12t-60 -37 q-16 -16 -26.5 -39.5t-10.5 -54.5z" />
<glyph unicode="&#xab;" horiz-adv-x="724" d="M41 588l174 350h139l-129 -350l129 -348h-139zM354 588l168 340h140l-130 -340l130 -348h-140z" />
<glyph unicode="&#xac;" horiz-adv-x="1366" d="M0 537v120h1243h123v-657h-123v537h-1243z" />
<glyph unicode="&#xad;" horiz-adv-x="1366" d="M0 537v120h1366v-120h-1366z" />
<glyph unicode="&#xae;" horiz-adv-x="1705" d="M125 723q0 158 58.5 291t157.5 230t231.5 152.5t279.5 55.5q158 0 292 -57.5t231.5 -156.5t152.5 -231t55 -282q0 -154 -56.5 -287t-154.5 -231t-231 -155.5t-289 -57.5q-143 0 -274.5 53t-231.5 149.5t-160.5 230.5t-60.5 296zM190 723q0 -139 52.5 -261t142.5 -211 t210 -140.5t257 -51.5q141 0 263 52.5t211 141.5t140.5 210t51.5 260q0 137 -50.5 258t-138.5 211t-210 142t-263 52t-262 -52t-211 -142t-141.5 -211t-51.5 -258zM494 268v70q35 4 53 9t28 20q4 6 6.5 11t4.5 16.5t2 29.5v49v533q0 29 -1 48t-10.5 31.5t-28 18.5t-54.5 8 v70q43 -2 70.5 -3t47 -1h32.5h28q12 0 45 1t69.5 1t69.5 1t47 1q59 0 112.5 -6.5t94.5 -28.5q47 -25 79 -72t32 -112q0 -29 -9.5 -62t-34 -63.5t-67.5 -55t-113 -34.5q33 -10 53.5 -30t35 -44.5t21.5 -50t13 -45.5l19 -80q14 -53 24.5 -80t34.5 -27q18 0 36.5 20.5 t33.5 92.5l63 -10q-6 -25 -16 -65t-28.5 -77t-49.5 -64.5t-76 -27.5q-25 0 -53.5 10.5t-46.5 30.5q-31 31 -48.5 89.5t-33.5 117.5q-12 55 -23.5 94t-29 63.5t-45 37t-72.5 16.5h-70v-248q0 -37 2 -60.5t11.5 -38t31 -21.5t62.5 -13v-70q-51 4 -83 4h-79q-49 0 -95 -1 t-95 -3zM739 809h72q49 0 72.5 2t46.5 6q49 10 90 44t41 100q0 45 -23 79q-31 45 -77 54.5t-84 9.5q-51 0 -79 -5t-41.5 -20.5t-15.5 -41t-2 -68.5v-160z" />
<glyph unicode="&#xaf;" d="M61 1298v121h476v-121h-476z" />
<glyph unicode="&#xb0;" horiz-adv-x="724" d="M61 1231q0 63 24 117.5t64.5 95.5t96 64.5t116.5 23.5q63 0 118 -23.5t95.5 -64.5t64.5 -96.5t24 -116.5t-24 -116.5t-64.5 -96.5t-95 -64.5t-118.5 -23.5q-61 0 -116.5 23.5t-96 64.5t-64.5 96t-24 117zM184 1231q0 -74 51.5 -126t126.5 -52q74 0 126.5 52t52.5 126 t-52.5 126t-126.5 52q-76 0 -127 -52t-51 -126z" />
<glyph unicode="&#xb1;" horiz-adv-x="1366" d="M84 0v121h1198v-121h-1198zM84 776v121h541v524h120v-524h537v-121h-537v-524h-120v524h-541z" />
<glyph unicode="&#xb2;" horiz-adv-x="768" d="M74 543v88l178 200q72 80 123 139.5t84 105.5t48 83t15 72q0 53 -39 97t-114 44q-92 0 -140 -76q-14 -27 -18 -50t-6 -42h-111q4 33 10.5 67t24.5 68q25 47 59.5 73t70.5 37t65.5 13t44.5 2q117 0 190.5 -60.5t73.5 -170.5q0 -47 -13.5 -88t-47 -91t-92 -118t-146.5 -168 l-127 -133h330v160h106v-252h-569z" />
<glyph unicode="&#xb3;" horiz-adv-x="768" d="M55 793h119q2 -84 55.5 -131.5t137.5 -47.5q59 0 96 19.5t56.5 47.5t26.5 56.5t7 48.5q0 59 -35 108.5t-106 61.5q-18 4 -38 4.5t-77 0.5v94q37 0 59.5 1t44.5 5q47 8 74 28.5t41 45t17.5 47t3.5 32.5q0 78 -51.5 117t-118.5 39q-25 0 -52.5 -6t-54.5 -23.5t-45 -48 t-25 -80.5h-114q2 20 8 55.5t31 75.5q29 45 65.5 70t73.5 36t68.5 13t48.5 2q133 0 207.5 -68.5t74.5 -174.5q0 -31 -11 -72t-52 -82q-29 -29 -53.5 -38t-47.5 -17q106 -29 147.5 -93.5t41.5 -132.5q0 -53 -19.5 -100t-57.5 -84t-95 -58.5t-133 -21.5q-92 0 -157.5 30 t-102.5 73q-41 47 -48.5 91t-9.5 77z" />
<glyph unicode="&#xb4;" d="M143 1241l86 275h226l-168 -275h-144z" />
<glyph unicode="&#xb5;" horiz-adv-x="1110" d="M10 938v129h322v-719q2 -47 12 -102.5t59 -93.5q31 -25 66 -32t59 -7q80 0 126 48t68.5 119.5t29 154.5t6.5 155v348h-152v129h322v-938h151v-129h-297l-10 150q-12 -23 -22.5 -39.5t-21.5 -29.5t-23.5 -25.5t-30.5 -24.5q-16 -10 -59.5 -33t-110.5 -23q-39 0 -68.5 9.5 t-53.5 21.5t-39 25.5t-26 23.5v-473h-155v1356h-152z" />
<glyph unicode="&#xb6;" horiz-adv-x="1366" d="M184 1049q0 111 39 182.5t86 111.5q41 37 85 57.5t87 30t83 12.5t71 3h455v-90h-70v-1698h-94v1698h-322v-1698h-94v1018q-41 6 -87 18.5t-101 53.5q-70 53 -104 133t-34 168z" />
<glyph unicode="&#xb7;" horiz-adv-x="512" d="M145 469v217h220v-217h-220z" />
<glyph unicode="&#xb8;" d="M137 -307h86q4 -16 17.5 -43t56.5 -27q35 0 54.5 23.5t19.5 56.5t-17.5 57.5t-52.5 24.5q-25 0 -38 -7t-23 -18l-93 15l76 266h84l-55 -197q18 8 33.5 13.5t38.5 5.5q70 0 103.5 -46t33.5 -110q0 -68 -40 -117t-126 -49q-55 0 -86 17.5t-46.5 42t-19.5 50t-6 42.5z" />
<glyph unicode="&#xb9;" horiz-adv-x="768" d="M229 1296v97l156 55h76v-817h92v-88h-301v88h92v706z" />
<glyph unicode="&#xba;" horiz-adv-x="681" d="M55 1126q0 72 17.5 138.5t54.5 115.5q27 35 57.5 54.5t59 29t55.5 11.5t45 2t43 -2t53.5 -11.5t58 -28t56.5 -51.5q35 -41 53.5 -103t18.5 -140q0 -59 -15.5 -130t-56.5 -126q-47 -63 -104.5 -81t-110.5 -18q-20 0 -47 2.5t-55.5 12.5t-58 29.5t-56.5 54.5 q-68 83 -68 241zM172 1135q0 -18 3 -62.5t18.5 -88.5t50.5 -78t100 -34q49 0 81 25t50.5 63.5t26.5 85t8 87.5q0 33 -6 77.5t-23.5 84.5t-50.5 69t-86 29q-39 0 -70 -17q-59 -33 -80.5 -101.5t-21.5 -139.5z" />
<glyph unicode="&#xbb;" horiz-adv-x="724" d="M63 238l130 337l-130 349h140l176 -349l-176 -337h-140zM369 238l129 337l-129 349h139l174 -349l-174 -337h-139z" />
<glyph unicode="&#xbc;" horiz-adv-x="1792" d="M229 1294v97l156 55h76v-815h92v-88h-301v88h92v706zM549 0l559 1446h117l-555 -1446h-121zM1083 248v92l320 563h172v-563h172v-92h-172v-156h90v-92h-301v92h96v156h-377zM1202 340h258v461z" />
<glyph unicode="&#xbd;" horiz-adv-x="1792" d="M229 1296v97l156 55h76v-817h92v-88h-301v88h92v708zM549 0l559 1448h117l-555 -1448h-121zM1098 0v88l178 201q74 82 125 141t83 105.5t47 83t15 71.5q0 53 -39 97t-114 44q-43 0 -79 -18t-59 -57q-16 -25 -20 -47.5t-6 -44.5h-111q4 31 10.5 65.5t24.5 69.5 q25 47 60.5 72.5t70.5 37t65.5 13.5t45.5 2q115 0 188.5 -60.5t73.5 -169.5q0 -49 -13.5 -90t-47 -91t-91 -117.5t-147.5 -168.5l-127 -135h330v160h106v-252h-569z" />
<glyph unicode="&#xbe;" horiz-adv-x="1792" d="M55 793h119q2 -84 55.5 -131.5t137.5 -47.5q59 0 96 19.5t56.5 47.5t26.5 56.5t7 48.5q0 59 -35 108.5t-106 61.5q-18 4 -38 4.5t-77 0.5v94q37 0 59.5 1t44.5 5q47 8 74 28.5t41 45t17.5 47t3.5 32.5q0 78 -51.5 117t-118.5 39q-25 0 -52.5 -6t-54.5 -23.5t-45 -48 t-25 -80.5h-114q2 20 8 55.5t31 75.5q29 45 65.5 70t73.5 36t68.5 13t48.5 2q133 0 207.5 -68.5t74.5 -174.5q0 -31 -11 -72t-52 -82q-29 -29 -53.5 -38t-47.5 -17q106 -29 147.5 -93.5t41.5 -132.5q0 -53 -19.5 -100t-57.5 -84t-95 -58.5t-133 -21.5q-92 0 -157.5 30 t-102.5 73q-41 47 -48.5 91t-9.5 77zM549 0l559 1448h117l-557 -1448h-119zM1083 248v92l320 563h172v-563h172v-92h-172v-156h90v-92h-301v92h96v156h-377zM1202 340h258v461z" />
<glyph unicode="&#xbf;" horiz-adv-x="980" d="M80 313q0 53 13 98.5t30 80.5q16 31 35.5 59.5t47 62t65.5 75.5t91 99q25 27 38.5 45.5t21.5 37t11 40t3 50.5v126h170v-114q0 -39 -3 -67.5t-15.5 -57.5t-36 -62.5t-64.5 -80.5q-63 -72 -108 -124.5t-74 -96.5t-42 -84t-13 -85q0 -49 18.5 -87t51 -64.5t73.5 -40.5 t88 -14q33 0 82 9t92 38q47 31 73 71.5t38 82.5t14 82t2 69h174q0 -25 -2 -60.5t-10 -78.5t-24.5 -90.5t-45.5 -90.5q-53 -78 -147 -125t-229 -47q-106 0 -184 30t-130.5 78t-78 109.5t-25.5 126.5zM414 1235v211h213v-211h-213z" />
<glyph unicode="&#xc0;" horiz-adv-x="1280" d="M6 0v129h117l369 1188h-109v129h526v-129h-114l360 -1188h115v-129h-430v129h139l-98 330h-498l-94 -330h129v-129h-412zM418 1864h225l80 -273h-143zM422 584h428l-211 712z" />
<glyph unicode="&#xc1;" horiz-adv-x="1280" d="M6 0v129h117l369 1188h-109v129h526v-129h-114l360 -1188h115v-129h-430v129h139l-98 330h-498l-94 -330h129v-129h-412zM422 584h428l-211 712zM553 1591l86 275h225l-168 -275h-143z" />
<glyph unicode="&#xc2;" horiz-adv-x="1280" d="M6 0v129h117l369 1188h-109v129h526v-129h-114l360 -1188h115v-129h-430v129h139l-98 330h-498l-94 -330h129v-129h-412zM422 584h428l-211 712zM424 1591l102 279h219l97 -279h-115l-92 166l-92 -166h-119z" />
<glyph unicode="&#xc3;" horiz-adv-x="1280" d="M6 0v129h117l369 1188h-109v129h526v-129h-114l360 -1188h115v-129h-430v129h139l-98 330h-498l-94 -330h129v-129h-412zM322 1620q4 43 6 81t12 66q2 6 8 23.5t19.5 36t36 33t55.5 14.5q31 0 55.5 -9.5t34.5 -13.5q8 -4 17 -10t28.5 -18.5t53.5 -35t89 -58.5 q41 -29 64 -29q16 0 26.5 12t16.5 31.5t9 45.5t5 52h92q-2 -66 -8 -114t-35 -89q-23 -31 -49.5 -40t-48.5 -9q-33 0 -58.5 10.5t-48.5 24.5q-45 29 -87 56.5t-85 56.5q-14 10 -26 16t-29 6q-37 0 -45 -40t-12 -99h-96zM422 584h428l-211 712z" />
<glyph unicode="&#xc4;" horiz-adv-x="1280" d="M6 0v129h117l369 1188h-109v129h526v-129h-114l360 -1188h115v-129h-430v129h139l-98 330h-498l-94 -330h129v-129h-412zM399 1649v166h185v-166h-185zM422 584h428l-211 712zM688 1649v166h186v-166h-186z" />
<glyph unicode="&#xc5;" horiz-adv-x="1280" d="M6 0v129h117l369 1188h-109v129h526v-129h-114l360 -1188h115v-129h-430v129h139l-98 330h-498l-94 -330h129v-129h-412zM422 584h428l-211 712zM434 1745q0 39 14.5 74.5t41 63.5t65.5 44.5t86 16.5q45 0 84 -16.5t65.5 -44.5t42 -63.5t15.5 -74.5q0 -82 -57.5 -140.5 t-149.5 -58.5q-96 0 -151.5 59.5t-55.5 139.5zM520 1745q0 -49 35 -85t86 -36t87 36t36 85q0 53 -37 88t-86 35t-85 -35t-36 -88z" />
<glyph unicode="&#xc6;" horiz-adv-x="1748" d="M8 0v129h96l490 1188h-129v129h1161v-449h-151v320h-547l73 -479h418v-136h-397l90 -573h363v358h151v-487h-817v129h137l-51 332h-489l-138 -332h138v-129h-398zM459 588h415l-114 737z" />
<glyph unicode="&#xc7;" horiz-adv-x="1193" d="M92 702q0 100 12 203q4 33 14.5 88.5t32 119t56.5 128t90 115.5q53 49 135 86t186 37q25 0 59 -3t69.5 -11.5t70.5 -24t66 -37.5q31 -23 47 -44.5t31 -43.5l4 133h135v-459h-150q-6 43 -13 79t-22 71q-33 90 -103.5 150.5t-174.5 60.5q-12 0 -52 -4.5t-87 -26.5 q-72 -37 -115 -106.5t-68 -147.5q-16 -53 -25 -107.5t-14.5 -103.5t-6.5 -89t-1 -65q0 -49 3 -97t12 -95q8 -51 19 -101.5t34 -97.5q14 -31 35.5 -66.5t55.5 -66.5t83 -52.5t117 -21.5q49 0 98 15.5t90 48.5q43 33 68.5 77t40 89t19.5 85t7 66h164q-4 -41 -10 -86t-19.5 -94 t-38 -98t-67.5 -94q-45 -49 -93 -76t-94.5 -40t-87 -17.5t-67.5 -4.5l-37 -129q20 8 35.5 13.5t36.5 5.5q70 0 103.5 -47t33.5 -109q0 -31 -8 -60.5t-28.5 -53t-52.5 -38t-79 -14.5q-23 0 -43 3t-39 14q-47 27 -58.5 64.5t-15.5 70.5h86q4 -16 17.5 -43t56.5 -27 q35 0 54.5 23.5t19.5 56.5q0 31 -16.5 56.5t-53.5 25.5q-25 0 -38 -7t-23 -18l-92 15l59 202q-135 16 -225 83t-142.5 167.5t-74 223t-21.5 251.5z" />
<glyph unicode="&#xc8;" horiz-adv-x="1150" d="M41 0v129h149v1188h-149v129h993v-453h-153v324h-519v-479h469v-136h-469v-573h519v358h153v-487h-993zM354 1864h226l79 -273h-143z" />
<glyph unicode="&#xc9;" horiz-adv-x="1150" d="M41 0v129h149v1188h-149v129h993v-453h-153v324h-519v-479h469v-136h-469v-573h519v358h153v-487h-993zM489 1591l86 275h226l-168 -275h-144z" />
<glyph unicode="&#xca;" horiz-adv-x="1150" d="M41 0v129h149v1188h-149v129h993v-453h-153v324h-519v-479h469v-136h-469v-573h519v358h153v-487h-993zM360 1591l103 279h219l96 -279h-114l-93 166l-92 -166h-119z" />
<glyph unicode="&#xcb;" horiz-adv-x="1150" d="M41 0v129h149v1188h-149v129h993v-453h-153v324h-519v-479h469v-136h-469v-573h519v358h153v-487h-993zM336 1647v165h184v-165h-184zM625 1647v165h186v-165h-186z" />
<glyph unicode="&#xcc;" horiz-adv-x="555" d="M37 0v129h151v1188h-151v129h477v-129h-154v-1188h154v-129h-477zM55 1864h226l79 -273h-143z" />
<glyph unicode="&#xcd;" horiz-adv-x="555" d="M37 0v129h151v1188h-151v129h477v-129h-154v-1188h154v-129h-477zM190 1591l86 275h226l-168 -275h-144z" />
<glyph unicode="&#xce;" horiz-adv-x="555" d="M37 0v129h151v1188h-151v129h477v-129h-154v-1188h154v-129h-477zM61 1591l103 279h219l96 -279h-114l-93 166l-92 -166h-119z" />
<glyph unicode="&#xcf;" horiz-adv-x="555" d="M37 0v129h151v1188h-151v129h477v-129h-154v-1188h154v-129h-477zM37 1647v165h184v-165h-184zM326 1647v165h186v-165h-186z" />
<glyph unicode="&#xd0;" horiz-adv-x="1280" d="M-2 705v129h190v483h-151v129h524q63 -2 136 -7t143.5 -30t136 -77t117.5 -146q47 -86 70.5 -202t23.5 -239q0 -88 -12 -174q-4 -35 -12.5 -77.5t-23 -91t-36 -98.5t-53.5 -95q-51 -74 -109.5 -116t-119 -61.5t-119 -24.5t-111.5 -7h-555v129h151v576h-190zM358 129h148 q23 0 42 1t42 1q45 2 104.5 10.5t118.5 48.5q61 43 100 110t60.5 141.5t30 150.5t8.5 135q0 135 -22.5 231.5t-61.5 167.5q-37 68 -83 106t-95.5 56.5t-99.5 22.5t-97 6h-195v-483h347v-129h-347v-576z" />
<glyph unicode="&#xd1;" horiz-adv-x="1280" d="M41 0v129h149v1188h-149v129h428l473 -1305v1176h-147v129h456v-129h-153v-1317h-273l-479 1317v-1188h150v-129h-455zM322 1620q4 43 6 81t12 66q2 6 8 23.5t19.5 36t36 33t55.5 14.5q31 0 55.5 -9.5t34.5 -13.5q8 -4 17 -10t28.5 -18.5t53.5 -35t89 -58.5 q41 -29 64 -29q16 0 26.5 12t16.5 31.5t9 45.5t5 52h92q-2 -66 -8 -114t-35 -89q-23 -31 -49.5 -40t-48.5 -9q-33 0 -58.5 10.5t-48.5 24.5q-45 29 -87 56.5t-85 56.5q-14 10 -26 16t-29 6q-37 0 -45 -40t-12 -99h-96z" />
<glyph unicode="&#xd2;" horiz-adv-x="1280" d="M92 700q0 86 9.5 177.5t33 178.5t64.5 163.5t102 134.5q53 47 136 85t198 38q94 0 181 -29t157 -90q63 -55 104 -127t65.5 -153t34 -167t9.5 -170q0 -72 -6 -143.5t-23 -142.5q-18 -92 -55 -181.5t-109 -162.5q-14 -14 -40.5 -38t-69.5 -46.5t-104.5 -39t-141.5 -16.5 q-182 0 -301 91.5t-178 244.5q-41 100 -53.5 199.5t-12.5 193.5zM264 709q0 -53 3 -105.5t14 -105.5q14 -78 41.5 -147.5t71.5 -123t104.5 -85t138.5 -31.5t135 29.5t99 79.5t70 115.5t44 135.5t22.5 138.5t6.5 125.5q0 123 -23.5 232.5t-70 191.5t-115 130t-160.5 48 q-98 0 -170 -48t-119 -133t-69.5 -199.5t-22.5 -247.5zM418 1864h225l80 -273h-143z" />
<glyph unicode="&#xd3;" horiz-adv-x="1280" d="M92 700q0 86 9.5 177.5t33 178.5t64.5 163.5t102 134.5q53 47 136 85t198 38q94 0 181 -29t157 -90q63 -55 104 -127t65.5 -153t34 -167t9.5 -170q0 -72 -6 -143.5t-23 -142.5q-18 -92 -55 -181.5t-109 -162.5q-14 -14 -40.5 -38t-69.5 -46.5t-104.5 -39t-141.5 -16.5 q-182 0 -301 91.5t-178 244.5q-41 100 -53.5 199.5t-12.5 193.5zM264 709q0 -53 3 -105.5t14 -105.5q14 -78 41.5 -147.5t71.5 -123t104.5 -85t138.5 -31.5t135 29.5t99 79.5t70 115.5t44 135.5t22.5 138.5t6.5 125.5q0 123 -23.5 232.5t-70 191.5t-115 130t-160.5 48 q-98 0 -170 -48t-119 -133t-69.5 -199.5t-22.5 -247.5zM553 1591l86 275h225l-168 -275h-143z" />
<glyph unicode="&#xd4;" horiz-adv-x="1280" d="M92 700q0 86 9.5 177.5t33 178.5t64.5 163.5t102 134.5q53 47 136 85t198 38q94 0 181 -29t157 -90q63 -55 104 -127t65.5 -153t34 -167t9.5 -170q0 -72 -6 -143.5t-23 -142.5q-18 -92 -55 -181.5t-109 -162.5q-14 -14 -40.5 -38t-69.5 -46.5t-104.5 -39t-141.5 -16.5 q-182 0 -301 91.5t-178 244.5q-41 100 -53.5 199.5t-12.5 193.5zM264 709q0 -53 3 -105.5t14 -105.5q14 -78 41.5 -147.5t71.5 -123t104.5 -85t138.5 -31.5t135 29.5t99 79.5t70 115.5t44 135.5t22.5 138.5t6.5 125.5q0 123 -23.5 232.5t-70 191.5t-115 130t-160.5 48 q-98 0 -170 -48t-119 -133t-69.5 -199.5t-22.5 -247.5zM424 1591l102 279h219l97 -279h-115l-92 166l-92 -166h-119z" />
<glyph unicode="&#xd5;" horiz-adv-x="1280" d="M92 700q0 86 9.5 177.5t33 178.5t64.5 163.5t102 134.5q53 47 136 85t198 38q94 0 181 -29t157 -90q63 -55 104 -127t65.5 -153t34 -167t9.5 -170q0 -72 -6 -143.5t-23 -142.5q-18 -92 -55 -181.5t-109 -162.5q-14 -14 -40.5 -38t-69.5 -46.5t-104.5 -39t-141.5 -16.5 q-182 0 -301 91.5t-178 244.5q-41 100 -53.5 199.5t-12.5 193.5zM264 709q0 -53 3 -105.5t14 -105.5q14 -78 41.5 -147.5t71.5 -123t104.5 -85t138.5 -31.5t135 29.5t99 79.5t70 115.5t44 135.5t22.5 138.5t6.5 125.5q0 123 -23.5 232.5t-70 191.5t-115 130t-160.5 48 q-98 0 -170 -48t-119 -133t-69.5 -199.5t-22.5 -247.5zM344 1620q4 43 6 81t12 66q2 6 8.5 23.5t19.5 36t36 33t55 14.5q31 0 55.5 -9.5t34.5 -13.5q8 -4 17.5 -10t29 -18.5t53.5 -35t89 -58.5q41 -29 63 -29q16 0 26.5 12t16.5 31.5t9.5 45.5t5.5 52h92q-2 -66 -8.5 -114 t-34.5 -89q-23 -31 -49.5 -40t-49.5 -9q-33 0 -58 10.5t-48 24.5q-45 29 -87 56.5t-85 56.5q-14 10 -26.5 16t-28.5 6q-37 0 -45.5 -40t-12.5 -99h-96z" />
<glyph unicode="&#xd6;" horiz-adv-x="1280" d="M92 700q0 86 9.5 177.5t33 178.5t64.5 163.5t102 134.5q53 47 136 85t198 38q94 0 181 -29t157 -90q63 -55 104 -127t65.5 -153t34 -167t9.5 -170q0 -72 -6 -143.5t-23 -142.5q-18 -92 -55 -181.5t-109 -162.5q-14 -14 -40.5 -38t-69.5 -46.5t-104.5 -39t-141.5 -16.5 q-182 0 -301 91.5t-178 244.5q-41 100 -53.5 199.5t-12.5 193.5zM264 709q0 -53 3 -105.5t14 -105.5q14 -78 41.5 -147.5t71.5 -123t104.5 -85t138.5 -31.5t135 29.5t99 79.5t70 115.5t44 135.5t22.5 138.5t6.5 125.5q0 123 -23.5 232.5t-70 191.5t-115 130t-160.5 48 q-98 0 -170 -48t-119 -133t-69.5 -199.5t-22.5 -247.5zM399 1649v166h185v-166h-185zM688 1649v166h186v-166h-186z" />
<glyph unicode="&#xd7;" horiz-adv-x="1366" d="M172 170l424 426l-424 422l86 86l424 -424l426 424l84 -86l-424 -422l424 -426l-84 -84l-426 424l-424 -424z" />
<glyph unicode="&#xd8;" horiz-adv-x="1280" d="M47 -207l199 344q-16 20 -28.5 36.5t-29.5 45.5q-16 29 -33.5 69t-31.5 94t-23.5 126t-9.5 162q0 29 2 71.5t7 95t16.5 110t29.5 116.5q59 199 182.5 306.5t317.5 107.5q57 0 104.5 -9.5t83 -21.5t62.5 -26.5t45 -26.5l117 217h168l-183 -316q14 -20 26.5 -38.5 t29.5 -47.5q51 -98 69.5 -206.5t18.5 -219.5q0 -51 -3 -101t-12 -99q-16 -133 -55 -245t-104.5 -193t-159.5 -127t-219 -46q-111 0 -178.5 27t-104.5 47l-137 -252h-166zM262 668q0 -78 7 -137.5t18.5 -102.5t25 -74.5t23.5 -54.5l528 954q-31 27 -79 55.5t-132 28.5 q-78 0 -136 -30.5t-102 -83t-73 -121t-47.5 -143t-25.5 -150.5t-7 -141zM422 182q31 -27 61.5 -41t58 -21t50 -9t35.5 -2q100 0 172.5 56t120 149.5t71 214t23.5 251.5q0 80 -8.5 138.5t-18.5 99.5t-21.5 66.5t-19.5 39.5z" />
<glyph unicode="&#xd9;" horiz-adv-x="1236" d="M18 1317v129h476v-129h-154v-768q0 -92 6 -169t37 -138q41 -80 108.5 -109t129.5 -29q86 0 150.5 38t98.5 116q10 25 16.5 53.5t9.5 63.5t4 82t1 108v752h-156v129h469v-129h-147v-871q-2 -68 -12.5 -145.5t-63.5 -155.5q-20 -31 -53 -61.5t-78 -55t-103.5 -40 t-127.5 -15.5q-117 0 -211 42t-154 118q-35 45 -53 92t-27.5 97.5t-11.5 103.5t-2 109v782h-152zM397 1864h226l79 -273h-143z" />
<glyph unicode="&#xda;" horiz-adv-x="1236" d="M18 1317v129h476v-129h-154v-768q0 -92 6 -169t37 -138q41 -80 108.5 -109t129.5 -29q86 0 150.5 38t98.5 116q10 25 16.5 53.5t9.5 63.5t4 82t1 108v752h-156v129h469v-129h-147v-871q-2 -68 -12.5 -145.5t-63.5 -155.5q-20 -31 -53 -61.5t-78 -55t-103.5 -40 t-127.5 -15.5q-117 0 -211 42t-154 118q-35 45 -53 92t-27.5 97.5t-11.5 103.5t-2 109v782h-152zM532 1591l86 275h226l-168 -275h-144z" />
<glyph unicode="&#xdb;" horiz-adv-x="1236" d="M18 1317v129h476v-129h-154v-768q0 -92 6 -169t37 -138q41 -80 108.5 -109t129.5 -29q86 0 150.5 38t98.5 116q10 25 16.5 53.5t9.5 63.5t4 82t1 108v752h-156v129h469v-129h-147v-871q-2 -68 -12.5 -145.5t-63.5 -155.5q-20 -31 -53 -61.5t-78 -55t-103.5 -40 t-127.5 -15.5q-117 0 -211 42t-154 118q-35 45 -53 92t-27.5 97.5t-11.5 103.5t-2 109v782h-152zM403 1591l103 279h219l96 -279h-114l-93 166l-92 -166h-119z" />
<glyph unicode="&#xdc;" horiz-adv-x="1236" d="M18 1317v129h476v-129h-154v-768q0 -92 6 -169t37 -138q41 -80 108.5 -109t129.5 -29q86 0 150.5 38t98.5 116q10 25 16.5 53.5t9.5 63.5t4 82t1 108v752h-156v129h469v-129h-147v-871q-2 -68 -12.5 -145.5t-63.5 -155.5q-20 -31 -53 -61.5t-78 -55t-103.5 -40 t-127.5 -15.5q-117 0 -211 42t-154 118q-35 45 -53 92t-27.5 97.5t-11.5 103.5t-2 109v782h-152zM379 1645v165h184v-165h-184zM668 1645v165h186v-165h-186z" />
<glyph unicode="&#xdd;" horiz-adv-x="1110" d="M-8 1317v129h442v-129h-153l280 -643l289 643h-123v129h395v-129h-104l-381 -809v-379h154v-129h-478v129h154v391l-369 797h-106zM469 1591l86 275h225l-168 -275h-143z" />
<glyph unicode="&#xde;" horiz-adv-x="1110" d="M37 0v129h156v1188h-156v129h477v-129h-149v-141h190q47 0 102.5 -3.5t109.5 -18.5t105.5 -48t90.5 -90q35 -53 55 -125t20 -150q0 -86 -24.5 -165.5t-79.5 -143.5q-41 -45 -86 -69.5t-93 -37t-96.5 -15.5t-95.5 -3h-198v-178h149v-129h-477zM365 436h149q55 0 116.5 6.5 t112 35t84 90t33.5 173.5q0 45 -10 98.5t-39 96.5q-27 39 -60.5 61.5t-71.5 32.5t-77 13.5t-76 3.5h-161v-611z" />
<glyph unicode="&#xdf;" horiz-adv-x="1110" d="M37 0v129h153v885q2 43 5.5 94t18.5 103.5t45 101.5t83 90t117.5 56.5t122.5 15.5q8 0 37.5 -2.5t71.5 -12.5t88 -31.5t84 -62.5t63.5 -103.5t25.5 -152.5q0 -84 -22.5 -138t-55 -88t-68.5 -50.5t-63 -26.5q35 -10 91.5 -34.5t101.5 -80.5q4 -6 19.5 -26.5t32 -57.5 t28.5 -88t12 -117q0 -109 -35 -188.5t-92 -131.5t-129 -76.5t-147 -24.5q-41 0 -74 5t-62 11v143q29 -6 51.5 -9t51.5 -3q123 0 189.5 86t66.5 219q0 18 -3 49t-12.5 66t-28 70.5t-50.5 62.5q-41 33 -86 39t-117 6v133q35 4 73 10.5t72 32.5q45 35 62.5 83t17.5 106 q0 119 -57 184t-144 65q-31 0 -61.5 -9t-56.5 -29q-35 -27 -54.5 -62t-28.5 -75t-10.5 -84t-1.5 -87v-995h-325z" />
<glyph unicode="&#xe0;" horiz-adv-x="1067" d="M84 291q0 72 28.5 139.5t77.5 112.5q37 31 83 51t98.5 32.5t109 17.5t111.5 5q29 0 60.5 -1t60.5 -3v70q-2 59 -10.5 111.5t-51.5 88.5q-23 18 -56.5 29.5t-74.5 11.5q-29 0 -63.5 -8t-65.5 -27.5t-53.5 -55.5t-26.5 -91h-176q6 49 22.5 111.5t78.5 118.5 q43 39 113.5 63.5t166.5 24.5q80 0 157 -26t130 -85q27 -31 41 -63.5t21 -68.5t9.5 -73t4.5 -76v-571h147v-129h-303l-10 125q-16 -20 -39 -46t-56.5 -49.5t-81 -40t-110.5 -16.5q-80 0 -142.5 25t-107.5 68t-68.5 101t-23.5 124zM258 299q0 -80 49 -137.5t144 -57.5 q66 0 110.5 24t69.5 48q25 25 40 52.5t24.5 66.5t12.5 94t5 133q-41 4 -72 6t-63 2q-84 0 -124 -11t-55 -15q-70 -29 -105.5 -84t-35.5 -121zM313 1516h226l80 -273h-144z" />
<glyph unicode="&#xe1;" horiz-adv-x="1067" d="M84 291q0 72 28.5 139.5t77.5 112.5q37 31 83 51t98.5 32.5t109 17.5t111.5 5q29 0 60.5 -1t60.5 -3v70q-2 59 -10.5 111.5t-51.5 88.5q-23 18 -56.5 29.5t-74.5 11.5q-29 0 -63.5 -8t-65.5 -27.5t-53.5 -55.5t-26.5 -91h-176q6 49 22.5 111.5t78.5 118.5 q43 39 113.5 63.5t166.5 24.5q80 0 157 -26t130 -85q27 -31 41 -63.5t21 -68.5t9.5 -73t4.5 -76v-571h147v-129h-303l-10 125q-16 -20 -39 -46t-56.5 -49.5t-81 -40t-110.5 -16.5q-80 0 -142.5 25t-107.5 68t-68.5 101t-23.5 124zM258 299q0 -80 49 -137.5t144 -57.5 q66 0 110.5 24t69.5 48q25 25 40 52.5t24.5 66.5t12.5 94t5 133q-41 4 -72 6t-63 2q-84 0 -124 -11t-55 -15q-70 -29 -105.5 -84t-35.5 -121zM448 1241l86 275h226l-168 -275h-144z" />
<glyph unicode="&#xe2;" horiz-adv-x="1067" d="M84 291q0 72 28.5 139.5t77.5 112.5q37 31 83 51t98.5 32.5t109 17.5t111.5 5q29 0 60.5 -1t60.5 -3v70q-2 59 -10.5 111.5t-51.5 88.5q-23 18 -56.5 29.5t-74.5 11.5q-29 0 -63.5 -8t-65.5 -27.5t-53.5 -55.5t-26.5 -91h-176q6 49 22.5 111.5t78.5 118.5 q43 39 113.5 63.5t166.5 24.5q80 0 157 -26t130 -85q27 -31 41 -63.5t21 -68.5t9.5 -73t4.5 -76v-571h147v-129h-303l-10 125q-16 -20 -39 -46t-56.5 -49.5t-81 -40t-110.5 -16.5q-80 0 -142.5 25t-107.5 68t-68.5 101t-23.5 124zM258 299q0 -80 49 -137.5t144 -57.5 q66 0 110.5 24t69.5 48q25 25 40 52.5t24.5 66.5t12.5 94t5 133q-41 4 -72 6t-63 2q-84 0 -124 -11t-55 -15q-70 -29 -105.5 -84t-35.5 -121zM319 1243l103 279h219l96 -279h-115l-92 166l-92 -166h-119z" />
<glyph unicode="&#xe3;" horiz-adv-x="1067" d="M84 291q0 72 28.5 139.5t77.5 112.5q37 31 83 51t98.5 32.5t109 17.5t111.5 5q29 0 60.5 -1t60.5 -3v70q-2 59 -10.5 111.5t-51.5 88.5q-23 18 -56.5 29.5t-74.5 11.5q-29 0 -63.5 -8t-65.5 -27.5t-53.5 -55.5t-26.5 -91h-176q6 49 22.5 111.5t78.5 118.5 q43 39 113.5 63.5t166.5 24.5q80 0 157 -26t130 -85q27 -31 41 -63.5t21 -68.5t9.5 -73t4.5 -76v-571h147v-129h-303l-10 125q-16 -20 -39 -46t-56.5 -49.5t-81 -40t-110.5 -16.5q-80 0 -142.5 25t-107.5 68t-68.5 101t-23.5 124zM217 1272q4 43 6 81t12 66q2 6 8 23.5 t19.5 36t36 33t55.5 14.5q39 0 65.5 -11.5t61.5 -33.5q8 -6 28.5 -19.5t44 -30t46 -32t32.5 -21.5q23 -14 37.5 -21t26.5 -7q16 0 26.5 12t16.5 32.5t9 46t5 52.5h92q-2 -66 -8 -115t-35 -90q-23 -31 -49 -40t-49 -9q-33 0 -58.5 10.5t-47.5 24.5q-45 29 -87 57.5t-85 57.5 q-14 10 -26.5 16t-29.5 6q-37 0 -45 -40t-12 -99h-96zM258 299q0 -80 49 -137.5t144 -57.5q66 0 110.5 24t69.5 48q25 25 40 52.5t24.5 66.5t12.5 94t5 133q-41 4 -72 6t-63 2q-84 0 -124 -11t-55 -15q-70 -29 -105.5 -84t-35.5 -121z" />
<glyph unicode="&#xe4;" horiz-adv-x="1067" d="M84 291q0 72 28.5 139.5t77.5 112.5q37 31 83 51t98.5 32.5t109 17.5t111.5 5q29 0 60.5 -1t60.5 -3v70q-2 59 -10.5 111.5t-51.5 88.5q-23 18 -56.5 29.5t-74.5 11.5q-29 0 -63.5 -8t-65.5 -27.5t-53.5 -55.5t-26.5 -91h-176q6 49 22.5 111.5t78.5 118.5 q43 39 113.5 63.5t166.5 24.5q80 0 157 -26t130 -85q27 -31 41 -63.5t21 -68.5t9.5 -73t4.5 -76v-571h147v-129h-303l-10 125q-16 -20 -39 -46t-56.5 -49.5t-81 -40t-110.5 -16.5q-80 0 -142.5 25t-107.5 68t-68.5 101t-23.5 124zM258 299q0 -80 49 -137.5t144 -57.5 q66 0 110.5 24t69.5 48q25 25 40 52.5t24.5 66.5t12.5 94t5 133q-41 4 -72 6t-63 2q-84 0 -124 -11t-55 -15q-70 -29 -105.5 -84t-35.5 -121zM288 1300v168h185v-168h-185zM577 1300v168h185v-168h-185z" />
<glyph unicode="&#xe5;" horiz-adv-x="1067" d="M84 291q0 72 28.5 139.5t77.5 112.5q37 31 83 51t98.5 32.5t109 17.5t111.5 5q29 0 60.5 -1t60.5 -3v70q-2 59 -10.5 111.5t-51.5 88.5q-23 18 -56.5 29.5t-74.5 11.5q-29 0 -63.5 -8t-65.5 -27.5t-53.5 -55.5t-26.5 -91h-176q6 49 22.5 111.5t78.5 118.5 q43 39 113.5 63.5t166.5 24.5q80 0 157 -26t130 -85q27 -31 41 -63.5t21 -68.5t9.5 -73t4.5 -76v-571h147v-129h-303l-10 125q-16 -20 -39 -46t-56.5 -49.5t-81 -40t-110.5 -16.5q-80 0 -142.5 25t-107.5 68t-68.5 101t-23.5 124zM258 299q0 -80 49 -137.5t144 -57.5 q66 0 110.5 24t69.5 48q25 25 40 52.5t24.5 66.5t12.5 94t5 133q-41 4 -72 6t-63 2q-84 0 -124 -11t-55 -15q-70 -29 -105.5 -84t-35.5 -121zM315 1393q0 39 14.5 74.5t41 63.5t65.5 44t86 16q92 0 149.5 -59t57.5 -139q0 -82 -57.5 -140.5t-149.5 -58.5q-96 0 -151.5 58.5 t-55.5 140.5zM401 1393q0 -49 35 -86t86 -37t87 36.5t36 86.5q0 51 -37 87t-86 36q-51 0 -86 -36t-35 -87z" />
<glyph unicode="&#xe6;" horiz-adv-x="1662" d="M82 293q0 92 45 170t125 123q90 49 209 57t246 8q0 63 -1 104.5t-12 73.5q-23 70 -74 98.5t-110 28.5q-37 0 -73 -11t-64 -34q-39 -33 -49.5 -69.5t-14.5 -65.5h-176q6 49 20.5 103.5t61.5 105.5q45 47 120 77t177 30q61 0 119.5 -14.5t109.5 -49.5q49 -35 69.5 -66.5 t37.5 -68.5q10 23 21.5 41t33.5 43q57 61 129 88t146 27q66 0 118 -16.5t89.5 -40t64.5 -50.5t41 -47q61 -86 80.5 -191.5t19.5 -216.5h-688q0 -35 1 -75.5t14 -89.5q25 -109 92 -181.5t170 -72.5q53 0 94 20q39 18 63.5 44t40 53.5t22.5 55t13 50.5h166q-2 -18 -7 -47 t-15.5 -61.5t-29 -68.5t-46.5 -67q-47 -53 -124 -85t-175 -32q-66 0 -126.5 17.5t-107.5 46.5q-41 27 -67.5 57.5t-44 60t-27.5 57.5t-16 46q-12 -49 -36 -106.5t-87 -104.5q-53 -41 -118 -57.5t-130 -16.5q-84 0 -147.5 26t-106.5 70t-64.5 102t-21.5 122zM256 301 q0 -94 56.5 -145.5t133.5 -51.5q39 0 87.5 14.5t87.5 49.5q31 27 47 58.5t24 65.5t10.5 66.5t2.5 61.5v110q-121 2 -213.5 -7t-161.5 -66q-41 -35 -57.5 -73t-16.5 -83zM918 651h499q-2 29 -10 79t-37 106q-39 76 -93 102.5t-106 26.5q-45 0 -94 -19.5t-90 -73.5 q-47 -59 -57 -118.5t-12 -102.5z" />
<glyph unicode="&#xe7;" horiz-adv-x="937" d="M80 514q0 152 27.5 247t62.5 154q47 76 121 126.5t182 50.5q59 0 103.5 -14.5t77 -36t55 -47t39.5 -46.5l10 111h129v-367h-144q-8 31 -16 65t-29 72q-23 43 -69.5 86t-118.5 43q-23 0 -52.5 -7t-61 -28.5t-61.5 -62.5t-50 -108q-18 -59 -24.5 -120t-6.5 -122 q0 -127 22.5 -195.5t45.5 -103.5q8 -14 23 -31.5t38 -34t53.5 -28t71.5 -11.5q53 0 93 19.5t69 50.5q23 25 36 51.5t20 52t10 46t5 32.5h162q-2 -23 -8 -58.5t-19.5 -76.5t-39 -83t-68.5 -79q-35 -31 -69.5 -47t-67.5 -25t-59.5 -12.5t-43.5 -3.5l-36 -129q18 8 34.5 13.5 t36.5 5.5q70 0 103.5 -47t33.5 -109q0 -68 -39.5 -117t-125.5 -49q-25 0 -49.5 5t-45.5 18q-43 27 -53 63.5t-12 65.5h88q2 -8 5 -20.5t11 -22.5t21.5 -18.5t36.5 -8.5q35 0 54 22.5t19 57.5q0 27 -15 54.5t-56 27.5q-25 0 -37.5 -7t-22.5 -18l-94 15l59 205q-37 4 -77.5 15 t-80.5 35.5t-78 64.5t-67 102q-39 84 -50 168t-11 149z" />
<glyph unicode="&#xe8;" horiz-adv-x="1067" d="M76 528q0 74 11 145.5t35.5 137.5t65.5 121t103 94q45 29 104.5 47.5t136.5 18.5q123 0 202 -40t126 -93.5t68.5 -104.5t27.5 -74q25 -78 29 -136t4 -118h-735q-2 -35 -1 -73.5t11 -85.5q23 -109 91.5 -182.5t189.5 -73.5q66 0 110.5 23.5t69.5 49.5q39 41 53.5 83 t18.5 69h170q-14 -96 -52 -164t-94.5 -112t-129.5 -64.5t-154 -20.5q-59 0 -130 15.5t-131 56.5q-53 35 -91 87t-62.5 114.5t-35.5 134.5t-11 145zM258 653h555q-16 158 -95 231.5t-183 73.5q-51 0 -89 -13t-66 -33.5t-45.5 -44t-27.5 -42.5q-29 -51 -37 -93t-12 -79z M325 1516h226l80 -273h-144z" />
<glyph unicode="&#xe9;" horiz-adv-x="1067" d="M76 528q0 74 11 145.5t35.5 137.5t65.5 121t103 94q45 29 104.5 47.5t136.5 18.5q123 0 202 -40t126 -93.5t68.5 -104.5t27.5 -74q25 -78 29 -136t4 -118h-735q-2 -35 -1 -73.5t11 -85.5q23 -109 91.5 -182.5t189.5 -73.5q66 0 110.5 23.5t69.5 49.5q39 41 53.5 83 t18.5 69h170q-14 -96 -52 -164t-94.5 -112t-129.5 -64.5t-154 -20.5q-59 0 -130 15.5t-131 56.5q-53 35 -91 87t-62.5 114.5t-35.5 134.5t-11 145zM258 653h555q-16 158 -95 231.5t-183 73.5q-51 0 -89 -13t-66 -33.5t-45.5 -44t-27.5 -42.5q-29 -51 -37 -93t-12 -79z M460 1241l86 275h226l-168 -275h-144z" />
<glyph unicode="&#xea;" horiz-adv-x="1067" d="M76 528q0 74 11 145.5t35.5 137.5t65.5 121t103 94q45 29 104.5 47.5t136.5 18.5q123 0 202 -40t126 -93.5t68.5 -104.5t27.5 -74q25 -78 29 -136t4 -118h-735q-2 -35 -1 -73.5t11 -85.5q23 -109 91.5 -182.5t189.5 -73.5q66 0 110.5 23.5t69.5 49.5q39 41 53.5 83 t18.5 69h170q-14 -96 -52 -164t-94.5 -112t-129.5 -64.5t-154 -20.5q-59 0 -130 15.5t-131 56.5q-53 35 -91 87t-62.5 114.5t-35.5 134.5t-11 145zM258 653h555q-16 158 -95 231.5t-183 73.5q-51 0 -89 -13t-66 -33.5t-45.5 -44t-27.5 -42.5q-29 -51 -37 -93t-12 -79z M332 1243l103 279h219l96 -279h-115l-92 166l-92 -166h-119z" />
<glyph unicode="&#xeb;" horiz-adv-x="1067" d="M76 528q0 74 11 145.5t35.5 137.5t65.5 121t103 94q45 29 104.5 47.5t136.5 18.5q123 0 202 -40t126 -93.5t68.5 -104.5t27.5 -74q25 -78 29 -136t4 -118h-735q-2 -35 -1 -73.5t11 -85.5q23 -109 91.5 -182.5t189.5 -73.5q66 0 110.5 23.5t69.5 49.5q39 41 53.5 83 t18.5 69h170q-14 -96 -52 -164t-94.5 -112t-129.5 -64.5t-154 -20.5q-59 0 -130 15.5t-131 56.5q-53 35 -91 87t-62.5 114.5t-35.5 134.5t-11 145zM258 653h555q-16 158 -95 231.5t-183 73.5q-51 0 -89 -13t-66 -33.5t-45.5 -44t-27.5 -42.5q-29 -51 -37 -93t-12 -79z M311 1296v168h185v-168h-185zM600 1296v168h185v-168h-185z" />
<glyph unicode="&#xec;" d="M57 1516h226l80 -273h-144z" />
<glyph unicode="&#xed;" d="M190 1241l86 275h226l-168 -275h-144z" />
<glyph unicode="&#xee;" d="M63 1243l103 279h219l96 -279h-115l-92 166l-92 -166h-119z" />
<glyph unicode="&#xef;" d="M43 1296v168h185v-168h-185zM332 1296v168h185v-168h-185z" />
<glyph unicode="&#xf0;" horiz-adv-x="1067" d="M78 524q0 113 20.5 201t54 152.5t78.5 106.5t93 65q41 20 94 31.5t100 11.5q88 0 174 -35q-16 27 -26.5 45t-22.5 34.5t-26.5 34t-36.5 41.5l-258 -79l-46 114l207 68q-23 23 -50 47t-62 53l161 68q27 -25 43.5 -40.5t28.5 -26.5t21.5 -22.5t23.5 -25.5l189 62l47 -121 l-146 -45q25 -31 67 -91.5t82 -150.5t69.5 -211t29.5 -270q0 -166 -51 -296t-139 -196q-55 -41 -128 -58.5t-137 -17.5q-82 0 -157.5 22.5t-134.5 76.5q-86 78 -124 197.5t-38 254.5zM250 530q0 -61 6 -119.5t29 -113.5q4 -14 18 -45t42 -62.5t72 -55t109 -23.5q29 0 56.5 5 t52.5 17q29 14 62.5 43t60.5 82q35 63 45 142t10 135q0 86 -14.5 157.5t-36.5 116.5q-10 20 -28.5 47t-45 48.5t-63.5 36.5t-86 15q-61 0 -115 -26q-51 -25 -85 -68t-53.5 -96t-27.5 -113.5t-8 -122.5z" />
<glyph unicode="&#xf1;" horiz-adv-x="1193" d="M53 0v129h148v809h-148v129h314l6 -166q8 16 19 39t32 45q39 45 105.5 77t156.5 32q53 0 103.5 -12.5t93.5 -41.5q45 -31 69.5 -68.5t36.5 -79.5t14.5 -87t2.5 -88v-588h155v-129h-477v129h150v541q0 86 -9.5 145t-58.5 100q-27 23 -59.5 32t-63.5 9q-55 0 -104.5 -23.5 t-83.5 -68.5q-29 -35 -45.5 -79t-23.5 -92t-10 -98t-3 -97v-369h153v-129h-473zM283 1272q4 43 6 81t12 66q2 6 8 23.5t19.5 36t36 33t55.5 14.5q39 0 65.5 -11.5t61.5 -33.5q8 -6 28.5 -19.5t44 -30t46 -32t32.5 -21.5q23 -14 37.5 -21t26.5 -7q16 0 26.5 12t16.5 32.5 t9 46t5 52.5h92q-2 -66 -8 -115t-35 -90q-23 -31 -49 -40t-49 -9q-33 0 -58.5 10.5t-47.5 24.5q-45 29 -87 57.5t-85 57.5q-14 10 -26.5 16t-29.5 6q-37 0 -45 -40t-12 -99h-96z" />
<glyph unicode="&#xf2;" horiz-adv-x="1067" d="M78 514q0 63 7 129t25.5 127t49 116.5t76.5 100.5q55 53 126.5 76.5t142 27t133 -9t99.5 -28.5q115 -51 182.5 -182.5t67.5 -323.5q0 -90 -20.5 -196.5t-79.5 -198.5q-10 -16 -33 -47t-64.5 -60t-105 -50.5t-154.5 -21.5q-72 0 -152.5 20.5t-146.5 84.5 q-78 72 -115.5 184.5t-37.5 251.5zM250 530q0 -63 6 -120.5t29 -112.5q4 -14 18 -45t42 -62.5t72 -55t109 -23.5q137 0 213 111.5t76 312.5q0 84 -14.5 156.5t-36.5 117.5q-10 20 -27.5 46t-44 48.5t-64.5 37.5t-89 15q-29 0 -57.5 -6t-57.5 -20q-51 -25 -85 -68t-53.5 -96 t-27.5 -113.5t-8 -122.5zM325 1516h226l80 -273h-144z" />
<glyph unicode="&#xf3;" horiz-adv-x="1067" d="M78 514q0 63 7 129t25.5 127t49 116.5t76.5 100.5q55 53 126.5 76.5t142 27t133 -9t99.5 -28.5q115 -51 182.5 -182.5t67.5 -323.5q0 -90 -20.5 -196.5t-79.5 -198.5q-10 -16 -33 -47t-64.5 -60t-105 -50.5t-154.5 -21.5q-72 0 -152.5 20.5t-146.5 84.5 q-78 72 -115.5 184.5t-37.5 251.5zM250 530q0 -63 6 -120.5t29 -112.5q4 -14 18 -45t42 -62.5t72 -55t109 -23.5q137 0 213 111.5t76 312.5q0 84 -14.5 156.5t-36.5 117.5q-10 20 -27.5 46t-44 48.5t-64.5 37.5t-89 15q-29 0 -57.5 -6t-57.5 -20q-51 -25 -85 -68t-53.5 -96 t-27.5 -113.5t-8 -122.5zM460 1241l86 275h226l-168 -275h-144z" />
<glyph unicode="&#xf4;" horiz-adv-x="1067" d="M78 514q0 63 7 129t25.5 127t49 116.5t76.5 100.5q55 53 126.5 76.5t142 27t133 -9t99.5 -28.5q115 -51 182.5 -182.5t67.5 -323.5q0 -90 -20.5 -196.5t-79.5 -198.5q-10 -16 -33 -47t-64.5 -60t-105 -50.5t-154.5 -21.5q-72 0 -152.5 20.5t-146.5 84.5 q-78 72 -115.5 184.5t-37.5 251.5zM250 530q0 -63 6 -120.5t29 -112.5q4 -14 18 -45t42 -62.5t72 -55t109 -23.5q137 0 213 111.5t76 312.5q0 84 -14.5 156.5t-36.5 117.5q-10 20 -27.5 46t-44 48.5t-64.5 37.5t-89 15q-29 0 -57.5 -6t-57.5 -20q-51 -25 -85 -68t-53.5 -96 t-27.5 -113.5t-8 -122.5zM332 1243l103 279h219l96 -279h-115l-92 166l-92 -166h-119z" />
<glyph unicode="&#xf5;" horiz-adv-x="1067" d="M78 514q0 63 7 129t25.5 127t49 116.5t76.5 100.5q55 53 126.5 76.5t142 27t133 -9t99.5 -28.5q115 -51 182.5 -182.5t67.5 -323.5q0 -90 -20.5 -196.5t-79.5 -198.5q-10 -16 -33 -47t-64.5 -60t-105 -50.5t-154.5 -21.5q-72 0 -152.5 20.5t-146.5 84.5 q-78 72 -115.5 184.5t-37.5 251.5zM230 1272q4 43 6 81t12 66q2 6 8 23.5t19.5 36t36 33t55.5 14.5q39 0 65.5 -11.5t61.5 -33.5q8 -6 28.5 -19.5t44 -30t46 -32t32.5 -21.5q23 -14 37.5 -21t26.5 -7q16 0 26.5 12t16.5 32.5t9 46t5 52.5h92q-2 -66 -8 -115t-35 -90 q-23 -31 -49 -40t-49 -9q-33 0 -58.5 10.5t-47.5 24.5q-45 29 -87 57.5t-85 57.5q-14 10 -26.5 16t-29.5 6q-37 0 -45 -40t-12 -99h-96zM250 530q0 -63 6 -120.5t29 -112.5q4 -14 18 -45t42 -62.5t72 -55t109 -23.5q137 0 213 111.5t76 312.5q0 84 -14.5 156.5t-36.5 117.5 q-10 20 -27.5 46t-44 48.5t-64.5 37.5t-89 15q-29 0 -57.5 -6t-57.5 -20q-51 -25 -85 -68t-53.5 -96t-27.5 -113.5t-8 -122.5z" />
<glyph unicode="&#xf6;" horiz-adv-x="1067" d="M78 514q0 63 7 129t25.5 127t49 116.5t76.5 100.5q55 53 126.5 76.5t142 27t133 -9t99.5 -28.5q115 -51 182.5 -182.5t67.5 -323.5q0 -90 -20.5 -196.5t-79.5 -198.5q-10 -16 -33 -47t-64.5 -60t-105 -50.5t-154.5 -21.5q-72 0 -152.5 20.5t-146.5 84.5 q-78 72 -115.5 184.5t-37.5 251.5zM250 530q0 -63 6 -120.5t29 -112.5q4 -14 18 -45t42 -62.5t72 -55t109 -23.5q137 0 213 111.5t76 312.5q0 84 -14.5 156.5t-36.5 117.5q-10 20 -27.5 46t-44 48.5t-64.5 37.5t-89 15q-29 0 -57.5 -6t-57.5 -20q-51 -25 -85 -68t-53.5 -96 t-27.5 -113.5t-8 -122.5zM290 1300v168h185v-168h-185zM579 1300v168h185v-168h-185z" />
<glyph unicode="&#xf7;" horiz-adv-x="1366" d="M0 535v120h1364v-120h-1364zM592 328q0 35 25.5 64.5t68.5 29.5t68.5 -28.5t25.5 -65.5q0 -35 -24.5 -63.5t-69.5 -28.5q-41 0 -67.5 26.5t-26.5 65.5zM592 860q0 35 25.5 64.5t68.5 29.5t68.5 -28.5t25.5 -65.5q0 -35 -24.5 -63.5t-69.5 -28.5q-41 0 -67.5 26.5 t-26.5 65.5z" />
<glyph unicode="&#xf8;" horiz-adv-x="1067" d="M41 -211l174 297q-76 82 -107.5 188.5t-31.5 219.5q0 106 22.5 209.5t77.5 195.5q18 29 45 62.5t70 62.5t102.5 48.5t143.5 19.5q82 0 129 -14.5t75 -26.5l107 188h162l-152 -272q18 -23 40 -54.5t42.5 -79t33.5 -114t13 -158.5q0 -88 -15.5 -175t-51.5 -167 q-25 -53 -58 -98t-79 -79t-108.5 -52.5t-144.5 -18.5q-59 0 -101 9.5t-99 27.5l-123 -219h-166zM250 504q0 -59 6 -104.5t14.5 -78t18.5 -55t16 -37.5l377 682q-16 10 -50 26.5t-87 16.5q-16 0 -31.5 -2t-30.5 -6q-111 -29 -172 -141.5t-61 -300.5zM391 141q31 -14 60.5 -23 t70.5 -9q25 0 56.5 6t64.5 24q35 18 73 60.5t64 117.5q20 59 27.5 120t7.5 122q0 104 -17.5 162.5t-33.5 93.5z" />
<glyph unicode="&#xf9;" horiz-adv-x="1110" d="M10 938v129h322v-719q2 -47 12 -102.5t59 -93.5q31 -25 67 -32t58 -7q80 0 126 48t68.5 120.5t29 155.5t6.5 153v348h-152v129h322v-938h151v-129h-297l-10 147q-10 -20 -29.5 -48.5t-53.5 -56.5t-86 -47.5t-130 -19.5q-41 0 -96 12.5t-109 53.5q-39 33 -60.5 71 t-31.5 77.5t-12 78.5t-2 72v598h-152zM333 1516h226l80 -273h-144z" />
<glyph unicode="&#xfa;" horiz-adv-x="1110" d="M10 938v129h322v-719q2 -47 12 -102.5t59 -93.5q31 -25 67 -32t58 -7q80 0 126 48t68.5 120.5t29 155.5t6.5 153v348h-152v129h322v-938h151v-129h-297l-10 147q-10 -20 -29.5 -48.5t-53.5 -56.5t-86 -47.5t-130 -19.5q-41 0 -96 12.5t-109 53.5q-39 33 -60.5 71 t-31.5 77.5t-12 78.5t-2 72v598h-152zM469 1241l86 275h226l-168 -275h-144z" />
<glyph unicode="&#xfb;" horiz-adv-x="1110" d="M10 938v129h322v-719q2 -47 12 -102.5t59 -93.5q31 -25 67 -32t58 -7q80 0 126 48t68.5 120.5t29 155.5t6.5 153v348h-152v129h322v-938h151v-129h-297l-10 147q-10 -20 -29.5 -48.5t-53.5 -56.5t-86 -47.5t-130 -19.5q-41 0 -96 12.5t-109 53.5q-39 33 -60.5 71 t-31.5 77.5t-12 78.5t-2 72v598h-152zM340 1243l103 279h219l96 -279h-115l-92 166l-92 -166h-119z" />
<glyph unicode="&#xfc;" horiz-adv-x="1110" d="M10 938v129h322v-719q2 -47 12 -102.5t59 -93.5q31 -25 67 -32t58 -7q80 0 126 48t68.5 120.5t29 155.5t6.5 153v348h-152v129h322v-938h151v-129h-297l-10 147q-10 -20 -29.5 -48.5t-53.5 -56.5t-86 -47.5t-130 -19.5q-41 0 -96 12.5t-109 53.5q-39 33 -60.5 71 t-31.5 77.5t-12 78.5t-2 72v598h-152zM301 1302v168h185v-168h-185zM590 1302v168h185v-168h-185z" />
<glyph unicode="&#xfd;" horiz-adv-x="1067" d="M4 938v129h428v-129h-137l250 -741l246 741h-140v129h410v-129h-107l-374 -1067q-25 -72 -51.5 -132.5t-63.5 -103.5t-90 -67.5t-133 -24.5q-47 0 -89 7.5t-83 17.5v151q29 -14 60.5 -26t78.5 -12q57 0 96 22.5t66.5 62t47 95t40.5 121.5l-346 956h-109zM448 1241l86 275 h226l-168 -275h-144z" />
<glyph unicode="&#xfe;" horiz-adv-x="1150" d="M41 -287h152v1604h-152v129h313v-522q51 70 122 119t171 49q72 0 143.5 -28t131.5 -87q86 -86 117.5 -204t31.5 -241q0 -143 -35 -248.5t-92 -174t-132 -102.5t-155 -34q-66 0 -113.5 16.5t-83.5 39t-59.5 46t-35.5 40.5v-402h151v-129h-475v129zM360 522 q0 -61 8.5 -120.5t30.5 -114.5q25 -59 56.5 -94t63.5 -52.5t60.5 -22.5t47.5 -5q74 0 133 43q43 31 69.5 75.5t42 97t21.5 108t6 104.5q0 82 -16.5 154.5t-50 128t-84.5 88t-119 32.5q-74 0 -124 -36t-83 -94t-47.5 -135t-14.5 -157z" />
<glyph unicode="&#xff;" horiz-adv-x="1067" d="M4 938v129h428v-129h-137l250 -741l246 741h-140v129h410v-129h-107l-374 -1067q-25 -72 -51.5 -132.5t-63.5 -103.5t-90 -67.5t-133 -24.5q-47 0 -89 7.5t-83 17.5v151q29 -14 60.5 -26t78.5 -12q57 0 96 22.5t66.5 62t47 95t40.5 121.5l-346 956h-109zM299 1296v168 h185v-168h-185zM588 1296v168h185v-168h-185z" />
<glyph unicode="&#x152;" horiz-adv-x="1835" d="M90 719q0 68 6 143.5t21.5 150t41 144.5t66.5 125q43 61 96.5 97t115 54.5t131 23.5t147.5 5q88 0 175 -5t175 -11h653v-453h-155v324h-504v-477h479v-135h-479v-576h504v365h155v-494h-712q-68 -2 -118 -4t-88 -3t-68 -2t-58 -1q-76 0 -148.5 5t-137 31.5t-121 82 t-99.5 155.5q-47 106 -62.5 225t-15.5 230zM264 719q0 -84 8.5 -163t26.5 -146.5t47 -122t70 -90.5q63 -55 131.5 -64.5t134.5 -9.5q100 0 203 6v1188q-45 2 -95.5 3t-91.5 1q-68 0 -123 -6t-100 -26.5t-81 -58.5t-62 -100q-37 -86 -52.5 -184t-15.5 -227z" />
<glyph unicode="&#x153;" horiz-adv-x="1792" d="M78 520q0 43 4 92.5t15.5 100.5t30.5 102t48 98q8 14 30.5 44t64.5 60t105.5 52.5t153.5 22.5q92 0 155 -24t104.5 -55.5t65.5 -66.5t38 -59q18 27 47 62.5t73 67.5t106.5 53.5t148.5 21.5q92 0 174 -31t144.5 -98.5t99 -175t34.5 -261.5h-725q0 -39 3 -84t13.5 -91 t30 -89t52.5 -76q37 -35 86 -55t100 -20t99 19.5t83 59.5q35 39 47.5 78t18.5 68h172q-4 -20 -10.5 -51t-20.5 -66q-27 -70 -71 -117t-96 -76.5t-108.5 -42t-111.5 -12.5q-94 0 -161.5 26t-113.5 61.5t-73 72.5t-41 59q-23 -35 -49.5 -73.5t-75.5 -73.5 q-53 -35 -117.5 -51.5t-130.5 -16.5q-86 0 -146.5 19.5t-101.5 48.5t-66.5 61.5t-41.5 59.5q-37 61 -61.5 147t-24.5 209zM250 539q0 -25 2 -67t10 -89t25.5 -96t49.5 -88t79 -63.5t114 -24.5q98 0 156.5 51t90.5 121.5t41 143.5t9 116q0 82 -19.5 157.5t-56 132t-90.5 90 t-126 33.5q-12 0 -34 -2t-46.5 -10t-51 -25.5t-53.5 -46.5q-47 -51 -73.5 -134t-26.5 -199zM1001 651h541q-4 25 -8 54.5t-16 62.5q-10 31 -31 64.5t-51.5 61.5t-72.5 46t-93 18q-45 0 -80 -12t-60.5 -30.5t-45 -42t-33.5 -48.5q-29 -53 -37 -97t-13 -77z" />
<glyph unicode="&#x178;" horiz-adv-x="1110" d="M-8 1317v129h442v-129h-153l280 -643l289 643h-123v129h395v-129h-104l-381 -809v-379h154v-129h-478v129h154v391l-369 797h-106zM315 1647v165h185v-165h-185zM604 1647v165h187v-165h-187z" />
<glyph unicode="&#x2c6;" d="M90 1243l103 279h219l96 -279h-115l-92 166l-92 -166h-119z" />
<glyph unicode="&#x2dc;" d="M-14 1272q4 43 6 81t12 66q2 6 8 23.5t19.5 36t36 33t55.5 14.5q39 0 65.5 -11.5t61.5 -33.5q8 -6 28.5 -19.5t44 -30t46 -32t32.5 -21.5q23 -14 37.5 -21t26.5 -7q16 0 26.5 12t16.5 32.5t9 46t5 52.5h92q-2 -66 -8 -115t-35 -90q-23 -31 -49 -40t-49 -9 q-33 0 -58.5 10.5t-47.5 24.5q-45 29 -87 57.5t-85 57.5q-14 10 -26.5 16t-29.5 6q-37 0 -45 -40t-12 -99h-96z" />
<glyph unicode="&#x2000;" horiz-adv-x="972" />
<glyph unicode="&#x2001;" horiz-adv-x="1944" />
<glyph unicode="&#x2002;" horiz-adv-x="972" />
<glyph unicode="&#x2003;" horiz-adv-x="1944" />
<glyph unicode="&#x2004;" horiz-adv-x="648" />
<glyph unicode="&#x2005;" horiz-adv-x="486" />
<glyph unicode="&#x2006;" horiz-adv-x="324" />
<glyph unicode="&#x2007;" horiz-adv-x="324" />
<glyph unicode="&#x2008;" horiz-adv-x="243" />
<glyph unicode="&#x2009;" horiz-adv-x="388" />
<glyph unicode="&#x200a;" horiz-adv-x="108" />
<glyph unicode="&#x2010;" horiz-adv-x="894" d="M70 502v162h753v-162h-753z" />
<glyph unicode="&#x2011;" horiz-adv-x="894" d="M70 502v162h753v-162h-753z" />
<glyph unicode="&#x2012;" horiz-adv-x="894" d="M70 502v162h753v-162h-753z" />
<glyph unicode="&#x2013;" horiz-adv-x="1193" d="M70 502v162h1054v-162h-1054z" />
<glyph unicode="&#x2014;" horiz-adv-x="1492" d="M70 502v162h1351v-162h-1351z" />
<glyph unicode="&#x2018;" horiz-adv-x="512" d="M66 995l237 451h148l-138 -451h-247z" />
<glyph unicode="&#x2019;" horiz-adv-x="512" d="M45 995l135 453h248l-235 -453h-148z" />
<glyph unicode="&#x201a;" horiz-adv-x="512" d="M53 -242l140 453h243l-237 -453h-146z" />
<glyph unicode="&#x201c;" horiz-adv-x="768" d="M45 1446h143l242 -449h-248zM338 1446h246l137 -449h-148z" />
<glyph unicode="&#x201d;" horiz-adv-x="768" d="M47 995l135 451h246l-235 -451h-146zM342 995l236 451h145l-135 -451h-246z" />
<glyph unicode="&#x201e;" horiz-adv-x="768" d="M29 -242l139 453h246l-240 -453h-145zM322 -242l235 453h148l-138 -453h-245z" />
<glyph unicode="&#x2022;" horiz-adv-x="681" d="M96 723q0 45 17.5 89t50.5 79t79 55.5t101 20.5q51 0 96 -19.5t77 -52.5t50.5 -77t18.5 -95q0 -49 -17.5 -94t-49.5 -78t-76 -52.5t-97 -19.5q-55 0 -100 19.5t-79 52.5t-52.5 78t-18.5 94z" />
<glyph unicode="&#x2026;" horiz-adv-x="2048" d="M231 0v217h220v-217h-220zM913 0v217h220v-217h-220zM1595 0v217h220v-217h-220z" />
<glyph unicode="&#x202f;" horiz-adv-x="388" />
<glyph unicode="&#x2039;" horiz-adv-x="425" d="M41 588l174 350h139l-129 -350l129 -348h-139z" />
<glyph unicode="&#x203a;" horiz-adv-x="425" d="M63 238l130 337l-130 349h140l176 -349l-176 -337h-140z" />
<glyph unicode="&#x205f;" horiz-adv-x="486" />
<glyph unicode="&#x2122;" horiz-adv-x="1579" d="M45 1272q2 25 3 44t2 37.5t2 40t1 52.5q72 0 144.5 -1t144.5 -1t143.5 1t143.5 1q0 -31 1 -52.5t2 -40t2 -38t3 -43.5h-62q-14 41 -24 62.5t-26.5 31.5t-43 12t-75.5 2v-454q0 -43 2 -56.5t10 -21.5q10 -10 27.5 -12t52.5 -7v-63q-49 2 -76 3t-42 1h-22.5h-17.5h-17.5 h-22.5t-42 -1t-76 -3v63q33 2 52.5 5.5t28.5 12.5t11 27.5t2 51.5v454q-49 0 -75.5 -2t-43 -12t-26.5 -31.5t-25 -62.5h-61zM696 766v63q25 4 40.5 8.5t22.5 13.5t10 27.5t3 53.5v428q-14 16 -31.5 19t-33.5 5v64q25 -2 49 -3t49 -1q23 0 46 1t46 3l207 -508l213 506h51.5 h38.5t42 1t60 1v-64q-31 -2 -46 -6t-23 -16t-9 -33.5t-1 -56.5v-340q0 -51 1 -63.5t7 -20.5q6 -10 18 -12t41 -7v-63q-31 2 -63.5 3t-67.5 1q-31 0 -62.5 -1t-64.5 -3v63q35 4 50.5 10.5t17.5 34.5v58v315l-203 -479h-45l-203 485v-321q0 -33 2 -52.5t10.5 -29.5t24.5 -14.5 t45 -6.5v-63q-39 0 -65.5 1t-51 1t-53.5 -1t-72 -1z" />
<glyph unicode="&#xe000;" horiz-adv-x="1064" d="M0 0v1065h1065v-1065h-1065z" />
</font>
</defs>
</svg>
